<mxfile host="app.diagrams.net" modified="2023-05-08T14:12:53.187Z" agent="Mozilla/5.0 (Windows NT 10.0; Win64; x64) AppleWebKit/537.36 (KHTML, like Gecko) Chrome/112.0.0.0 Safari/537.36" etag="rUM3YhlSwVgyk58EyXet" version="21.2.8" type="device">
  <diagram name="PÃ¡gina-1" id="T_bILU6ptL6M4ZRxap7T">
    <mxGraphModel dx="1902" dy="-691" grid="1" gridSize="10" guides="1" tooltips="1" connect="1" arrows="1" fold="1" page="1" pageScale="1" pageWidth="827" pageHeight="1169" math="0" shadow="0">
      <root>
        <mxCell id="0" />
        <mxCell id="1" parent="0" />
        <mxCell id="ScT8Iz7GkCcSUJIs-tXD-1" value="&amp;lt;&amp;lt;Entity&amp;gt;&amp;gt;&lt;br&gt;&amp;lt;&amp;lt;Root&amp;gt;&amp;gt;&lt;br style=&quot;border-color: var(--border-color);&quot;&gt;Student " style="rounded=0;whiteSpace=wrap;html=1;" vertex="1" parent="1">
          <mxGeometry x="130" y="2022" width="120" height="60" as="geometry" />
        </mxCell>
        <mxCell id="ScT8Iz7GkCcSUJIs-tXD-2" value="&amp;lt;&amp;lt;Entity&amp;gt;&amp;gt;&lt;br&gt;&amp;lt;&amp;lt;Root&amp;gt;&amp;gt;&lt;br&gt;Course " style="rounded=0;whiteSpace=wrap;html=1;" vertex="1" parent="1">
          <mxGeometry x="590" y="2022" width="120" height="60" as="geometry" />
        </mxCell>
        <mxCell id="ScT8Iz7GkCcSUJIs-tXD-3" value="&amp;lt;&amp;lt;Value Object&amp;gt;&amp;gt;&lt;br&gt;Course Title" style="rounded=0;whiteSpace=wrap;html=1;" vertex="1" parent="1">
          <mxGeometry x="670" y="1930" width="120" height="60" as="geometry" />
        </mxCell>
        <mxCell id="ScT8Iz7GkCcSUJIs-tXD-4" value="&amp;lt;&amp;lt;Entity&amp;gt;&amp;gt;&lt;br&gt;&amp;lt;&amp;lt;Root&amp;gt;&amp;gt;&lt;br&gt;Enrollment " style="rounded=0;whiteSpace=wrap;html=1;" vertex="1" parent="1">
          <mxGeometry x="370" y="2022" width="120" height="60" as="geometry" />
        </mxCell>
        <mxCell id="ScT8Iz7GkCcSUJIs-tXD-5" value="&amp;lt;&amp;lt;Value Object&amp;gt;&amp;gt;&lt;br&gt;Course Identifier" style="rounded=0;whiteSpace=wrap;html=1;" vertex="1" parent="1">
          <mxGeometry x="790" y="2075" width="120" height="60" as="geometry" />
        </mxCell>
        <mxCell id="ScT8Iz7GkCcSUJIs-tXD-6" value="&amp;lt;&amp;lt;Value Object&amp;gt;&amp;gt;&lt;br&gt;Course Name" style="rounded=0;whiteSpace=wrap;html=1;" vertex="1" parent="1">
          <mxGeometry x="790" y="1999" width="120" height="60" as="geometry" />
        </mxCell>
        <mxCell id="ScT8Iz7GkCcSUJIs-tXD-7" value="&amp;lt;&amp;lt;Value Object&amp;gt;&amp;gt;&lt;br&gt;Enrollment Limits" style="rounded=0;whiteSpace=wrap;html=1;" vertex="1" parent="1">
          <mxGeometry x="660" y="2120" width="120" height="60" as="geometry" />
        </mxCell>
        <mxCell id="ScT8Iz7GkCcSUJIs-tXD-8" value="&amp;lt;&amp;lt;Value Object&amp;gt;&amp;gt;&lt;br&gt;Date of Birth" style="rounded=0;whiteSpace=wrap;html=1;" vertex="1" parent="1">
          <mxGeometry x="130" y="2120" width="120" height="60" as="geometry" />
        </mxCell>
        <mxCell id="ScT8Iz7GkCcSUJIs-tXD-9" value="&amp;lt;&amp;lt;Value Object&amp;gt;&amp;gt;&lt;br&gt;Mechanographic Number" style="rounded=0;whiteSpace=wrap;html=1;" vertex="1" parent="1">
          <mxGeometry x="-40" y="2022" width="120" height="60" as="geometry" />
        </mxCell>
        <mxCell id="ScT8Iz7GkCcSUJIs-tXD-10" value="&amp;lt;&amp;lt;Value Object&amp;gt;&amp;gt;&lt;br&gt;Description" style="rounded=0;whiteSpace=wrap;html=1;" vertex="1" parent="1">
          <mxGeometry x="540" y="1930" width="120" height="60" as="geometry" />
        </mxCell>
        <mxCell id="ScT8Iz7GkCcSUJIs-tXD-11" value="" style="endArrow=diamondThin;endFill=1;endSize=24;html=1;rounded=0;exitX=0.5;exitY=1;exitDx=0;exitDy=0;" edge="1" parent="1" source="ScT8Iz7GkCcSUJIs-tXD-3">
          <mxGeometry width="160" relative="1" as="geometry">
            <mxPoint x="1430" y="2077" as="sourcePoint" />
            <mxPoint x="680" y="2020" as="targetPoint" />
          </mxGeometry>
        </mxCell>
        <mxCell id="ScT8Iz7GkCcSUJIs-tXD-12" value="" style="endArrow=diamondThin;endFill=1;endSize=24;html=1;rounded=0;exitX=0;exitY=0.25;exitDx=0;exitDy=0;" edge="1" parent="1" source="ScT8Iz7GkCcSUJIs-tXD-6">
          <mxGeometry width="160" relative="1" as="geometry">
            <mxPoint x="1110" y="1896" as="sourcePoint" />
            <mxPoint x="710" y="2040" as="targetPoint" />
          </mxGeometry>
        </mxCell>
        <mxCell id="ScT8Iz7GkCcSUJIs-tXD-13" value="" style="endArrow=diamondThin;endFill=1;endSize=24;html=1;rounded=0;entryX=1;entryY=0.75;entryDx=0;entryDy=0;exitX=0;exitY=0.5;exitDx=0;exitDy=0;" edge="1" parent="1" source="ScT8Iz7GkCcSUJIs-tXD-5" target="ScT8Iz7GkCcSUJIs-tXD-2">
          <mxGeometry width="160" relative="1" as="geometry">
            <mxPoint x="1110" y="1987" as="sourcePoint" />
            <mxPoint x="980" y="2037" as="targetPoint" />
          </mxGeometry>
        </mxCell>
        <mxCell id="ScT8Iz7GkCcSUJIs-tXD-14" value="" style="endArrow=classic;html=1;rounded=0;exitX=0;exitY=0.5;exitDx=0;exitDy=0;entryX=1;entryY=0.5;entryDx=0;entryDy=0;" edge="1" parent="1" source="ScT8Iz7GkCcSUJIs-tXD-2" target="ScT8Iz7GkCcSUJIs-tXD-4">
          <mxGeometry width="50" height="50" relative="1" as="geometry">
            <mxPoint x="540" y="2060" as="sourcePoint" />
            <mxPoint x="640" y="2100" as="targetPoint" />
          </mxGeometry>
        </mxCell>
        <mxCell id="ScT8Iz7GkCcSUJIs-tXD-15" value="has" style="edgeLabel;html=1;align=center;verticalAlign=middle;resizable=0;points=[];" vertex="1" connectable="0" parent="ScT8Iz7GkCcSUJIs-tXD-14">
          <mxGeometry x="-0.5223" y="-3" relative="1" as="geometry">
            <mxPoint x="-24" y="12" as="offset" />
          </mxGeometry>
        </mxCell>
        <mxCell id="ScT8Iz7GkCcSUJIs-tXD-16" value="" style="endArrow=diamondThin;endFill=1;endSize=24;html=1;rounded=0;exitX=0.5;exitY=0;exitDx=0;exitDy=0;entryX=0.25;entryY=1;entryDx=0;entryDy=0;" edge="1" parent="1" target="ScT8Iz7GkCcSUJIs-tXD-2" source="ScT8Iz7GkCcSUJIs-tXD-37">
          <mxGeometry width="160" relative="1" as="geometry">
            <mxPoint x="1160" y="2090" as="sourcePoint" />
            <mxPoint x="940" y="2037" as="targetPoint" />
          </mxGeometry>
        </mxCell>
        <mxCell id="ScT8Iz7GkCcSUJIs-tXD-17" value="" style="endArrow=diamondThin;endFill=1;endSize=24;html=1;rounded=0;entryX=0.75;entryY=1;entryDx=0;entryDy=0;exitX=0.5;exitY=0;exitDx=0;exitDy=0;" edge="1" parent="1" source="ScT8Iz7GkCcSUJIs-tXD-7" target="ScT8Iz7GkCcSUJIs-tXD-2">
          <mxGeometry width="160" relative="1" as="geometry">
            <mxPoint x="650" y="2167" as="sourcePoint" />
            <mxPoint x="880" y="2067" as="targetPoint" />
          </mxGeometry>
        </mxCell>
        <mxCell id="ScT8Iz7GkCcSUJIs-tXD-18" value="" style="endArrow=diamondThin;endFill=1;endSize=24;html=1;rounded=0;exitX=0.5;exitY=1;exitDx=0;exitDy=0;entryX=0.25;entryY=0;entryDx=0;entryDy=0;" edge="1" parent="1" source="ScT8Iz7GkCcSUJIs-tXD-10" target="ScT8Iz7GkCcSUJIs-tXD-2">
          <mxGeometry width="160" relative="1" as="geometry">
            <mxPoint x="990" y="1877" as="sourcePoint" />
            <mxPoint x="940" y="2037" as="targetPoint" />
          </mxGeometry>
        </mxCell>
        <mxCell id="ScT8Iz7GkCcSUJIs-tXD-19" value="requests" style="endArrow=classic;html=1;rounded=0;exitX=1;exitY=0.5;exitDx=0;exitDy=0;entryX=0;entryY=0.5;entryDx=0;entryDy=0;" edge="1" parent="1" source="ScT8Iz7GkCcSUJIs-tXD-1" target="ScT8Iz7GkCcSUJIs-tXD-4">
          <mxGeometry x="-0.0803" y="-15" width="50" height="50" relative="1" as="geometry">
            <mxPoint x="550" y="1967" as="sourcePoint" />
            <mxPoint x="480" y="2040" as="targetPoint" />
            <mxPoint as="offset" />
          </mxGeometry>
        </mxCell>
        <mxCell id="ScT8Iz7GkCcSUJIs-tXD-20" value="" style="endArrow=diamondThin;endFill=1;endSize=24;html=1;rounded=0;exitX=0.5;exitY=1;exitDx=0;exitDy=0;entryX=0.5;entryY=0;entryDx=0;entryDy=0;" edge="1" parent="1" target="ScT8Iz7GkCcSUJIs-tXD-1" source="ScT8Iz7GkCcSUJIs-tXD-42">
          <mxGeometry width="160" relative="1" as="geometry">
            <mxPoint x="370" y="1830" as="sourcePoint" />
            <mxPoint x="460" y="1775" as="targetPoint" />
          </mxGeometry>
        </mxCell>
        <mxCell id="ScT8Iz7GkCcSUJIs-tXD-21" value="" style="endArrow=diamondThin;endFill=1;endSize=24;html=1;rounded=0;exitX=0.5;exitY=0;exitDx=0;exitDy=0;entryX=0.5;entryY=1;entryDx=0;entryDy=0;" edge="1" parent="1" source="ScT8Iz7GkCcSUJIs-tXD-8" target="ScT8Iz7GkCcSUJIs-tXD-1">
          <mxGeometry width="160" relative="1" as="geometry">
            <mxPoint x="380" y="1873" as="sourcePoint" />
            <mxPoint x="470" y="1785" as="targetPoint" />
          </mxGeometry>
        </mxCell>
        <mxCell id="ScT8Iz7GkCcSUJIs-tXD-22" value="" style="endArrow=diamondThin;endFill=1;endSize=24;html=1;rounded=0;exitX=1;exitY=0.5;exitDx=0;exitDy=0;entryX=0;entryY=0.5;entryDx=0;entryDy=0;" edge="1" parent="1" source="ScT8Iz7GkCcSUJIs-tXD-9" target="ScT8Iz7GkCcSUJIs-tXD-1">
          <mxGeometry width="160" relative="1" as="geometry">
            <mxPoint x="250" y="1970" as="sourcePoint" />
            <mxPoint x="20" y="1990" as="targetPoint" />
          </mxGeometry>
        </mxCell>
        <mxCell id="ScT8Iz7GkCcSUJIs-tXD-23" value="" style="endArrow=diamondThin;endFill=1;endSize=24;html=1;rounded=0;exitX=0.5;exitY=0;exitDx=0;exitDy=0;entryX=0.5;entryY=1;entryDx=0;entryDy=0;" edge="1" parent="1" target="ScT8Iz7GkCcSUJIs-tXD-4" source="ScT8Iz7GkCcSUJIs-tXD-38">
          <mxGeometry width="160" relative="1" as="geometry">
            <mxPoint x="529" y="2157" as="sourcePoint" />
            <mxPoint x="400" y="2123.32" as="targetPoint" />
          </mxGeometry>
        </mxCell>
        <mxCell id="ScT8Iz7GkCcSUJIs-tXD-29" value="1" style="text;html=1;strokeColor=none;fillColor=none;align=center;verticalAlign=middle;whiteSpace=wrap;rounded=0;fontSize=10;" vertex="1" parent="1">
          <mxGeometry x="570" y="2059" width="20" height="16" as="geometry" />
        </mxCell>
        <mxCell id="ScT8Iz7GkCcSUJIs-tXD-30" value="1..*" style="text;html=1;strokeColor=none;fillColor=none;align=center;verticalAlign=middle;whiteSpace=wrap;rounded=0;fontSize=10;" vertex="1" parent="1">
          <mxGeometry x="340" y="2059" width="20" height="16" as="geometry" />
        </mxCell>
        <mxCell id="ScT8Iz7GkCcSUJIs-tXD-32" value="1" style="text;html=1;strokeColor=none;fillColor=none;align=center;verticalAlign=middle;whiteSpace=wrap;rounded=0;fontSize=10;" vertex="1" parent="1">
          <mxGeometry x="250.00000000000003" y="2059" width="20" height="16" as="geometry" />
        </mxCell>
        <mxCell id="ScT8Iz7GkCcSUJIs-tXD-34" value="1..*" style="text;html=1;strokeColor=none;fillColor=none;align=center;verticalAlign=middle;whiteSpace=wrap;rounded=0;fontSize=10;" vertex="1" parent="1">
          <mxGeometry x="410" y="2054" width="20" height="16" as="geometry" />
        </mxCell>
        <mxCell id="ScT8Iz7GkCcSUJIs-tXD-36" value="" style="endArrow=diamondThin;endFill=1;endSize=24;html=1;rounded=0;exitX=0.5;exitY=0;exitDx=0;exitDy=0;entryX=0.5;entryY=0;entryDx=0;entryDy=0;" edge="1" parent="1" source="ScT8Iz7GkCcSUJIs-tXD-39" target="ScT8Iz7GkCcSUJIs-tXD-4">
          <mxGeometry width="160" relative="1" as="geometry">
            <mxPoint x="420" y="2178.5" as="sourcePoint" />
            <mxPoint x="480" y="2110" as="targetPoint" />
          </mxGeometry>
        </mxCell>
        <mxCell id="ScT8Iz7GkCcSUJIs-tXD-37" value="&amp;lt;&amp;lt;Value Object&amp;gt;&amp;gt;&lt;br&gt;Course Status " style="rounded=0;whiteSpace=wrap;html=1;" vertex="1" parent="1">
          <mxGeometry x="530" y="2120" width="120" height="60" as="geometry" />
        </mxCell>
        <mxCell id="ScT8Iz7GkCcSUJIs-tXD-38" value="&amp;lt;&amp;lt;Value Object&amp;gt;&amp;gt;&lt;br&gt;Enrollment Status " style="rounded=0;whiteSpace=wrap;html=1;" vertex="1" parent="1">
          <mxGeometry x="370" y="2120" width="120" height="60" as="geometry" />
        </mxCell>
        <mxCell id="ScT8Iz7GkCcSUJIs-tXD-39" value="&amp;lt;&amp;lt;Value Object&amp;gt;&amp;gt;&lt;br&gt;ID Enrollment" style="rounded=0;whiteSpace=wrap;html=1;" vertex="1" parent="1">
          <mxGeometry x="370" y="1930" width="120" height="60" as="geometry" />
        </mxCell>
        <mxCell id="ScT8Iz7GkCcSUJIs-tXD-42" value="&amp;lt;&amp;lt;Value Object&amp;gt;&amp;gt;&lt;br&gt;Tax Payer Number" style="rounded=0;whiteSpace=wrap;html=1;" vertex="1" parent="1">
          <mxGeometry x="130" y="1930" width="120" height="60" as="geometry" />
        </mxCell>
        <mxCell id="ScT8Iz7GkCcSUJIs-tXD-44" value="1..*" style="text;html=1;strokeColor=none;fillColor=none;align=center;verticalAlign=middle;whiteSpace=wrap;rounded=0;fontSize=10;" vertex="1" parent="1">
          <mxGeometry x="500" y="2059" width="20" height="16" as="geometry" />
        </mxCell>
        <mxCell id="ScT8Iz7GkCcSUJIs-tXD-46" value="" style="shape=stencil(lZ3bkjS3cYSfhrcbjTNwLdvvwQhRIkMyySApH97egBm7M5vZ+9U/d+Kvyp3uBlCoQ1bVd+Uvv//4/a8/fJev3//47Zd//PDfP/31jx+/K//2Xc4//fzjD7/99Mf+X9+Vf/+u/OVvv/z2w99/++VfP//1z//+9fsjef7Xf/7yX+cv/M+fuDXfcj2ofP3vn/+S3tr4/3/4jz/l//nTzyJfRH5Vlv/89/NbCf5+E/l5sXz/JF/eH/BL+SHyvb8iX9+uyfJT5FvwPJ/l29sVvG8V+ZZQPi2RX4vlP//9/lb5+6RL5Bc/z/X5fcdb4b9v8rO9Ij+j/XYNkY+e/7P8equ8/01+vfQ86YoWWAHp7eId54Bgiyogv10vvfMGBErFAdEqC6C879svAV0Br63bBozgkT4ftBRqipQUUHkdUlHACH7hsy5N7f1fvgRMBVTWFuf/+wwIFk7Uaervf+IrQLkU0Pk8lKqAxRqmyMJtlcSPVIsCBj9Slc/6sfZfAVpSQHBEW1XA4nVoch7WW+G91C8FBBdz/7w18vV+tX8JaAoYwS983kvbFgm290gK6PwLQx4pR7p1Xgqo/FlnVcAKfuHzXtoGTOEjupICgiO65KXru41yD1jvFssToNMjrffr4wPQ+DwsVcbH6qGvtNQqOWYPnemlZs+2YwptjaV21QZ0+qzLDOHBlt5Sy/CYSnRl7RNcFIC27ceRfwIsXmnRfNtayrzSovny5BO33lpWANpjSxXZNrDQAdiApYBgL/WkgBkAPn+lcr0lMn/uAI2/kgMmbw0FpPer/tsB0VcywOTNp4D8ll976cCqvAPgpbj0yiqFLYE7QKD5FFDfVdu3A9Afs926AajuHdD4nr4DBJpP36Gz/7ABVQForK93PfcEiM7DZ71Uxnsc4SuAmA4b0PkADdl82+bjvSS2xgYE23tIJGNfk6wqx1QAOhwbsBQQ7CUxf+oV3Q8zKwBtvo8H+ACkyHSYQwHoT2///FJAcAOtzytdc6Q1xMDagMHrsCSmFHi76z3G8wRovHAOwDCFA7Ze4oVzwAy+kgBadLE7oMNXStelhmtlxXSPIM10jyDr4Q4x0EW+R/QXEfPtehnx6pvP97P4rQu4woM0FYA+qQHaFVn5ayhgsEJTQHqPeHw7YASAz3ddy+EvGADDRg4okQPogBffIXQxHRC9w2cd29qLSnkDAhNCAZ0j2XeA+do7DHb17wCB16uAGVkEDsD0jwOCePkd4LVf6NeL77AB0QX/efP1FK6DAaKVFkAO95IBot0qgBJqPgO8pjV6jfwIB0RmkAC2RRAs3FBAEBBRQI+MdgcERrsCBl68twCMKN4BMKLogBmacgZ4cXuvVw/Qh1X+jYCxlcBLmm8DgtiAAlK4DgLIkXvmgCDksj67yaO8Z7m+HdCCdxBAfQ+sfjuALNEbQAtdm6KA6Ex/9txHfw/dfukxTgUMfqQpm29E1swsCpiBEyvvMN8K71Zx9Ud4RIe8w4qUgIQrxopuUQHM68Vf2IDAfxif99JMUcBcYjQbEPgP/bOHMnMYK2sKCMJGEp2eJbqBJGA+Q1e/NgUEQX/JEszt6vNKl6SAIGAuqZEZuvqSp96AHgDkkXp07QpfYAOC3XrZLwxOO8uVNUeUFJbA1AZUZlVIrGwGasayl3NGrAo9cTNKd0rKdgOCR5K081zvLIivAHoePjb8VwA9D4ud16nnYV0R0UPOwwYEufacFRBkwiV7uVLEIpPtvQGF1mFobGYDkIaxt5oB0BcdemWtzEpgaAx/Axr/gqQKV+A0jXdX9QNQmGAwbKULH9GhWeQNwPjS0NT5qnweuq1D5UfqeqZXEKj98Hg+AI3TnR+a9AmAIfn+nhh8AuCF0lUZ739BRdY003Eekn6hKeHmfDc6ce09EfIEQFpSe7+gPgCD86PbezYA3tPVFNngM11t8w22l4rm5R565CuAWAJHtdFeymoZr8AyzkoPe5Ct7gFJb9HHJfYVoBgA1cxl77BYe1/KeT72Dbz0udEuBWRYh2n20jEb4StNY6wdwxTeYZsiyx6JmCFzKB3mYY3fA7pmkR9OzlcA1RoLNd82OoU5+PAd7wHVdOvCS3EDfB0oTLFt+Wpfiaz7mZWA9kjDfAUQZfyU6blHJOMaRohLnfxvQMjNGyGGUQC+AaEc4ggx1YAIEUN1wTcgxIQIEf096PPNiKa+yjcgSn4NUV9ej2o3JO/1UUwzL7yDR1Z//xGv+gpw80igN0ey62i9G2z3gOtGqxHPqltodDF97cRmTTOTTdqn3fKsaDfgKgagRxpmqSwMo/SusaMHp+grgHpQC0Ojvb1HWZ4B9A71Zh3IV94Av10opt3LjR1BtS+9aC3XWpgU6tlcro/QzVeAZOeBgq89mTOxMP61AX7iiMNxsoPyCxOVQLMA8iMS8xXgxgCEd2gWdzmBFXokK3o7Nil81jbMN5ho6m9Asq9EYcXWleS3OBS0AVoYNTEq0tzlmhhmb9ViFhNJrxtQbeGIndmKOddMoN4AoWgfD4oAWePyJ05CWyO/p0SfnTpauGQXykec5CuALtxASmr7IDM/AchHqx9G8bPrC2e6+okbqDXqNH9/YHKuWtnlcd9BCdRhLlfHW7R6KKijn1m7UlJPJAbWYQNUa3QMBdVmrm/HC2UD1Pvo6GfWphVqj1jPPaBqru1Edmjhql0onVe6mvnT0ITbALVmGq90sUhn45UuGtN+hJ++AkgR9WqYcK9ZiXEnXkW/kG17NwyCb4AG/SofoGyub8U0bE12i1Y04Wqy3coc1ppst1YkoNRLE72rYtqpuqosaKxvgNqtBdV9sczwCVEzQG1vrrAvlthaGS/FYimbDaCVLl5TnbFMtQzNqga5hQ24PHsBurV0zVNtAMWDNyAZgCLOpdk7cAnPBugvMM+tVPuFi/dS1Vr7ILFVimVgLsxebIBY93MhB6B8bIQnABm6JVkadiFpYAM8X0hGYrnUmpnsDpQP6tITgBRZNk7MBhT4rKdngaVhLzhAGyB33Eklw0vnaTwGNkPzVIdjDiSK5mH0kIFn+tFo4glAyvh0shCWQceFy6YEHjHorwA5K4CUcTaLbLKBtQG60mwv5Wb9M7hyNlc1QzeAPJQNkNDgBuD2LsoRm2zNbEAzAFmVuegtOhtvjWybryKP4XS9MRINEeNyNj4Jd4fI5sdN5t9uQF4KIBMuuyIraMJtgKj7DaBGCadDgP0CBdWSVXdtAGnvDdCtUfAW3QDxp2fhShkr0J/MMkhTI4mHIwYLl8wXnWz+pGEHKOP9sAFSObsBlIZNQx3wyY0SNuASAFPkU9dqxw0YtA5dTemTh+Jf0M+aUBmnpjzomVAZb8CwRyJawum+IufhQlP69HcpCqAMfap2oVxcNFdtt14Y59sA/awX1islV/fMr9oA0XyD07DJ8kCD0wkbcBkAT1zWRO/ghPsGVPsFsipTVntpMMsgJY1VbgCudFJrZnBx0AZIcHMDyD1OFkncAMr4JWNKjIFcvdM7ayqA6jM2QPJxG4Cq8tIwxeDQ47JlCKrAlDE52KZcmnLe8sgC0nT+occTw0CN4pMcpsy88cS5Kvej0dGTPBl71h9qcI8r7ydXOUNr5P6Kzz+U8T04qGQcw1NiQTlpNZEGG2FdkyBbngxPu2cH98DoalANto+6Wp0jY6Ckm+rNnCbSyP7JyVN2Qu+zkdBGbbbfEsbEm5JGtjw9T9WOCOPisKdpaS5/tKzyuDiArmmJvtDTqVr13fmqtKT1ls+wf4qapp0rUMt7bupJns5v0fXtnJYsanF17u2WrfqUG1pmjdduefSWtTtL5wss2/f5MM2/kBfvvXNey+yUUyGJzyORpi1PbqyZNb1hpDapfjs1oWSZqXG55UmfJyVCdu5tlvQ89soWuybxtjza39bPle8X41McWgmcx0t5nJ0p72bCbXn6PpfWaPWM4aVL798tT/aPWYid7wvL0PSE3KVL7/dTPI5/X/fDhXxMM1i3PAW8L71/tzwZ6cY1bgvrwC2E0xbqn0tLuQ4bBr9P6ipPER9LkLWBftKljKXG+vPSLMvp6gDn91L7s3EE91L7p7Xg+wtHf8vnl+Qr6vNL9fOWp8ohl+eM5p08r6/KZ/Sn7uSJVXepPmwJQzB38nTf3clTtMPlOWBzaRx5y1OaxOQrk+Dv5Ol+vOsKxPrN5cmDv5On++6udxLZ2/6+I9r/n8/X6f/Ezz9Vnu8v0VeV7R/Tt5VbPF/KEd3yFNm1+6VWJA5e797Tkzy1GLD7tDLh4VJ77JBj8O8LX6gyGcH42Fue9bnYM4e3gn9f6jO2PPkjlzWXuzB/l9Q/3fIY9VZ/sDDpPmlhRmGetKXXSxAIVf+3cIfZdNNmkeJ1Se3bEiSyNaZZBjKes4bHS8e8xoc1+ySPab6bbp3Uxz5r/OG0AyXmi+6fwjQt86+3fIb3NcrIabFKdAulXBVuoFBVf56ushifkRbIh0FC1Drr0sk8n6bx5MJdL5rqw3KhvWTxscz3e9fvk9me7xpPyBPjG139wczxlqH2fx5ckqP+2vkXeN+h+ydzWwYbmZC5ENiyvSciSgV6mg3LQV86awLegvi/ZKr2jkV9bg5YMOFmA3QQAPMMUlIT6BH0+wqg37RwjMPIFSfMRpeARcky3/IpKyXrBKo46yl+/7kJ6R2KTQ5IfFFWtcyO7cIAMVUyd/NNTX3txOVyG+BTKBr/gmQzEnd7T12vy8PPoF/o+lnTxPsgDQ2QPPgZXwEko5e4QVuylNWDn/EVQMeH8ESTZEomcTnEGRYiL81WS7JW0okbLORLeTeJ85Ie+DujaIiHZmrmsR2/Auhn5dBKTkqYSiGtTJR3qpjfPmrLZghRZcAx14YC6Eyf/ElWAOYHilYsJQ74nNtgKQCpcVamdWY5Ucqlag7lTIti1qQYPYkp7Lkp7ThxlDo3TSsnNjuPlZAUQHHk7FXemQ9QV89x36ukl/Kw3cqUrGxViIl7sWcbLpe4TdEG6DokjCZkm46TmCSfrdRsA5DTaJ31Eg/3KK75+NrdgG6/QAbWmf0hZSkYMi1JfUgupt4elFZP4Pl8zPF4yGNlQzE2OhdnWP3URBe4FCN+49ksppB45mCpuum4LnV74EoexmtkywsrduBNWLrG4EZUuyIxEa4YLUN95oEh4lPfI5wqDHGUaSwvrGYoNrupM4XAxloEpZye80N7rRoPrmNItibVox1d8jOPQt+X9ls1I4GbJVbjcDT0dU5EWHJ4eG9UaybChlq12qqGKZ7a9Tw2ZKjWoVYXp/ir2eMV9VW1DhwVXf52WQyXKUyWg+dCyWZNGSqGiFv25yf3o1mVV8UQ/ZkuIDF0vOSbxewq0kybmX+Fi/Sbfk8ef9C67gcOabahFkHBEHez3osFQ17N9CeXhLalkYSC9fzdcmYFz1e/lCfPKZue9H7kkO9heEgOAF2abm2AMg7H6UX1VWaKpjHeM3foqcqRzbjfelN7LCPlqTfNaWWmjFp/xowpv8MY0+cni7gPnwlOpYF9WEwTKcTd+q1yecyWH/q+uJ+XhUwx5dF94iBTgi3HnNH+OQxR3Q8U7Rnejg0dw2HnMWEKYMtLzikhxWVYzowpu97GKzGF2zidCSkHjy76T/L0PNa4jAuNRtXoc2JKefX1ov08mg00Rnv7MP7FB8bqsNG1CJUpLsM460yBG0P9O/bhT5VJFXmiNA/L2bDLf0p39HlIfw4rx74wozJsRN2F+vA0R9TnIf90yw+TpxSYxRN40vNMen9deL/PpPuZ56lO4yhzl4FpUdQL7Ydp/hFT6GfRJMSF9uqpktX9Sfr81O12lec2pOVF+a77nzJN0/RPIN/Uvr2QgjutzVAoP3S9UN5qTi60D7d8sfVi+f6i/HpJfuj9GMqb/gzkp+oflLdu8xe26DvdK+x5WN7Xl867jY8I5ZvJk36wMYMXT/651F4K5cdL8unmfam/dLp5X5b39yV5a4YQyr/2vkX7NPF53/LN9DP//an7mezzVdU/4vvu0bfqm+WX7n+ci2bx5Av9kdWUM8cV3Ms4Q0xJWl3jpWzPLPMfr2jwQ1d7EoeODNcnOMp8KGfg4olrQ1tEJB5GY/GcxCXGQ+P/ifeDcZ4SzwYcltLiaYXOeOBZOsP9KaQwDcv68Xi5YaQQ9I+WdbdIPCx8WPNr1g838qiv7HkuHtY8tPfehRyYNdy+wnEbQ+PD3HTi7AfVn9F51PcN5rZIPOHi6YF2XtjfvDuPOADo5rxT/sX1STBD2EbnJJ6BYb1Jw/PS9bwE57Hpfo7O+0vy3Z8H9WF//3zfqG+b2zM4uqhpW+zgvmjuL+D+v7nf8XxZz9NQPqk8DiGyBqYX5tNPh0m9r3FWTlFmFpc4Leu2ciGL8M7+xDGYN/ZtIG/2WyBv9jkOkb2x/wN5f1/yx2/8F8q33vlHgby/L/uPZo8Rye3OfwzkzT+l+Nud/xvIm38dyJv/jvI38YFA3uIPgbzpq0De4idkn9/FZwJ5s08CeYsvofxN/Iri+XfxMZx9dBN/C+RtfxI/5C5+GMhbfJJaCtzFP1E+ezw5kLf9hs9vPVyD9bKBRIF+SH4/ov681D+6kP9z4vMmT/kRmxTNLWK2vMU3MN+xfH1xJo01e+UudcMJ7ZwPssGNbD9v+cvyWZyfUmI3+rPDqxCwVGOYvkp43w2z94J8ZXX/l/hUo6p+TsgfeHSMesiTP3jyp/r8uH+yxnO42fbIVsmC9vzJL2v+nfIvI6m9GubfxV7i7uLjcv4G5deG1YRzC6y+nL9B+eVufMiAjzFVnwd8j+n8DeIvdYsvcUPUww8ZIk/52d797+O8KmvTnLlksmm8i1tSdOObZdz/3XpwFsxfHH7RUHniwxS9fwvmW7vlT3lCQPcaadz/PVnNM/N5rMa+oH7uxp/hrsOno00Wecrvt2k12MzPHMpH5aHAbWiPhsIlw9azryD/uVnX8Yr77fAnlY9KbW6b8VsqxleblRhVbsFnNeqVBxaZ/RnyY2V9Y/6tfk/iRzXrMcQlutVqgGN+svQYwvNbLR7beCyQVRY1PF/VhvE1tIcPP1z55Dg0xXomNv6elu/jadLVewJinWDNXi9A+a+arCcg3qc16f3SMV5XjR/Y0X4ry3qkIh+gLI1v8GTr09FDenRifNvnwwz0B4v1CPhIUNzLd/U3Bw/0sPzm4Hol49dxi5ItL/qTB+Nteel5xI2dS7Wm+Xjfnbkw0hgd/c3T0UPryyi/X+x8LcxvFh9bye9rI44Xtxyxehye4brllb96oUIpFvBNF3qopweIDlCORshoSotzAD5C5rRt4DpIMbI2IMMuylO9mA2gMp5sbsZpYU4Az5MnHvBiidHTSYKH1Eg3lw3Abj1dQ3eP1hNfAaR2bwNos2abcp7YOzmXr5Vb45yQpu75BmTaS9X4xAUdUG96nILBItW2RuGpNsVK9yu39XUOOBc9HR/JfgFL921Se+JOsd7aN24/oHEh7v3kzXFPCwX6SslemmclZtd8PRpSo1wNnlmZbNjoBtDtf1qUXArALicWTk08zjSZvbMBtDWSFbAkbiqdjCGx/wQ1B0hOmZncJs6GZ20AFXWkftMLhqJ0ybyEtNBsTs3aDyxutWy93g/Rj166KtEjyFwkqxw/oXaepiKmWxDbPpq0KQC3d7FisRxNIpGO7EH48PShmAqgeo1k9tUJANE7JAs4cg+Sh7HzAahoQvuckOPzg241LXN8csrZa0riXMPEmbAQYmdOs5XgdbQzppoZmceWTC2BOT4etnXTEsuBNYpGgcvcdn9Yxy+eZ96Vohb4JN1KPnnsgaWQzg7BNn9yJRTOoVrJfGHzvKq6LlzzZinv7TRRjU21kDLXoFrKezt9dGcWPcBbnnR70RRMqTz200qeKw8itedvmLPJGkIpQfcqdWlPEw+U15Lzzl2ZbL0GcoJNpxeeU29jHspEb9DGPJSJHLKkftRp+sFtZK1NLfmONju6co1T0hBlZQ6N3WCnSQi+bzJ5bB9obakT3sGXhrxqDtqyy3rVHLStFwr6adOMbaw1BcAe4KXnpfIYjMtC+hXv30vNrNMmG9t8a0sQjolfliLpuB9shnDlybI2dqJyzNfbdkdjEuS+Dtusq3zUxt3luU28ywdjNkQ+anPv8txGX/Rt2Kbf5XkMgMpHYwY0hRSNMXB5HpOg8tEYBpfnMQ/aMigaI+HyPKZC5aMxGC7PYzb0fbknka8vT2E2ylnr0d9fKs/PLxSaFo1JEP12mtjw2B5J4U0Mt12awmg8hP2yFCEP8LTuo21FYwNsDA+FFi61Zzpzpi9rWcY1DJaS7ikYGyMUhc6x9kv9nc4cLxtL0DPanz7mKhiirBGzLU/638YYdB6LmPT+7TymwlpY9xKMVRCKUec+rsn2Q8UxUda6tvOYTAsd92Dkuo2Fa+jPWkuxHo0x0O/P8ZBs35/HMmUtoTpj7XisQlV5TDUpZeuM5UN/UykH3PLZxxwOrJkpmu7rQU9JG5s3OcVpY+Em2gNF/ZHO/qCNeThjIzG+oWMOF/cEtLFwK4if6P7hHqzVWm5e2MLYxkgMjkRbSdrgmrFmY0e5Bs8oZIP9025jehPaG91GemeMB3Z7frY/uz1/xrF/Q6PoZywujqmQ/RaM3R03Y3fp/BqldhSsoR025rlyDxqN/wyOp00tSdvy9PxGodzyZJ9PjSeMxjW6Nqa3cU34u3X0JI81furvD+aoLY3PD857Wsne6GyfXDdzv3HOwaVF5BuACT2b+3HqMoLp7lUBmd7BOviPEU6ot0dCq8wqOcfgMR7J9t2MsmeqqJm8lWwA1JicY7RQ8QZQqCxlo7dNHiFWdATGWDxTy4Y6bQB5h8kYmGNxjrEqBXkDMF5sHOTBJK5U1SObQQS4qYm8AUgDaHqnzYtHDzfNxE5mfZ1xKpcCyGs9OfehgGCcitjhM+E9eMgXSwFk6CQjF0/u5pGMLb8BeICsfHcDUGsMNWZnYqLBVCUwA+94qhKYnH5LVrIzA3962W7N/JWWRoQ3IODR6Epz29tso1tPISr5pBakntxIOF9ayLIBmLWzMMUGkNmfrbTsFOuS35g0sbkBOJUjq+abFZXxcX2zAnDIRjatUZmuV7Q+a1ZUxo9+2E8AUjPZGcecfsmm7mdAdat6sc+GbKNsRecbQBEXd6lmwI1rGiOYXMfgTtIMZipZo63ZkXl/+K6XApDUaIzaybUJztk93Q9opada6nNg9XC27s6Tx1Uc7k1VAPKOrV/GZLpesQK107KCR8LomZ54KZakfJ050XQoVkM/J2rvYkV/k/l9ZyrMUgCS3ovGeDaA6u5P3UFXABL3q3q5KyDuW5hnsQlXTGssHtJ3prnaL5CxXqyYdXE1/WMe7ROANF8ZN7+A82RsnsZi8+eM7JUBQ5krQKau9OIW8octkhSA67A0ILMBQdGUNG1ZXJVbL01BbAB5itU4D4vrYKspgVUwqXxGUds7YOVdsnWoTEuz1kur8uwaSxQsDkTVrNfuaZ9Fj5SV2rIBWJ5YTGvwPJdalBW8GkZOHtyXJ0BQobjsF3AvVTtxPFZ2A8Tx2wCyBA6/xn6BvKxqXTIWp7xr07KrDcCYe9Ok0AoKRZtmRRdH7Wq3M93R263WumBxnqra7IzVeeFseMYGYLWuGVirs9aw2OwK6lGXhh43gJJPddnW6LhwzegBi0eItWT3A495PzXiUwG0cC3bwg3senAIMfZI5JYdRsxQAPYxsKKoNZD03qwxzWJWR2tq6G4AWTOtqSm9eDZe67ZwXFzbjAm+AWRrtGHVoxzRbVZOvwHkZbWpZOTFBbzNT9zkrbE0PbN4BOIGLPsFsr27EXgWJ3B70oDU4oKiQ0ixX8BJ9Fk5tIvj3t1IAAdAj2SB8rUwGtqLLdzitGbVwOBayJs8tI6lANrevdmwzoWRk941ILUWpqZOex77BSrh69bfeAMwmWsDYA6A3mFqQGpxeUdfdrEv7DnY/cpiAsEwxtni2ekjafRnMcV9GEf/AKhvmZ8HLpwfRVmIi7M0PjnpAOgdql27i/P2VjgTA5a/AwFsMHMEGGZ7hwC1BALA1AYVEcDS5THgtXWY7u2GAL2BAoBFsCJAfnEdppG+gt06jWV1ANx5NPmJo7K8qhHd4ExP662zFoaxp1W2Hb0UTMOxE4ftPt2l4X4ec2j2eC2Mhs6pUelzx/GEGD8POHLKWvQtri9cxtc41kzQJNosMqxQTWaccInkieoZAOdAZM28rolO0/LGLTOc/CJfiR2OExEzD4UuRZ/9sphzsjxywtX/685ponZKG+AxgaD//GVRB2yw3u6CCFSN3EyRdR6BYS0TT2yGtkazdWjc9L2bzdd4ykm3UHzlMRvdVGVFH2hZ39nFVednmWQduHPf6to+YxXU3stGYS/u3bKs1+7i4bgnTtIUQDyBc1wsdh+Mt9C4RuYDNGy3ckPcZQ2JF1NIjlKpCkDNNyzpcrG6t570KxgKYENMzhXD6yCG7uSS9WVe1mR34BGJeQLgSlse6FzEdOKmMRGYC3duNMu84qwUZ+YwAfAA5LNyZeS5lbMCgkfSRGpwoVj/mdmxWH95yrwze9YmOsyPnndfAcSUno239zSSSuMbaGqmaVZMJyyz+Q5vht5haY3G5CZUj0jMEwDVjLGSH636vwLo9uayqQMw0lbmd1DCEw93fkRingC4l5ZRSAJVeQdAa2apRXY68JPWsBZRY/ERXdqOYgTW/TIG7eQZe8Y5GYOHAi2rkBh8Pyxln46O7vHD83wC4FyspUbiaGw6WNRhcF70BlDZHbgDEKvlBlC4cOAOgNPhHJAxgXcLQC/LAQmL924W7mJ1fwegiK4D+uKZb0vTOj08ogqYmD327X1K2oJHEsDgOZJ3gGgdDICT0PylO1+7dwCczeaA+EwbAKdbOqCGeskA1LTzBlCiO84B6Iv69s48AvEOgLEZB6RwexsgOkACuKJb1AEYajG91Ba7x3cAnDzrgPnqL3Cq9gbAGfBbQLQOAuBWbreAaC8JoIW71QCUIvStcdppvLRbWxBqcUDhmMAd4MVf4BZJrjUOR+QlZdyCuMYdIPoFaXsRjI68A0SaTxpVcdNON0Mrp5tvAKHt7YBIaxggunYFEESl7wD5NQD3g7sFvPjSHbkON4DGUek7AGVpbgAVmzDcAiITztqYESPkkYJ/AhDR5pF9ewJgI9Gl0Z/K047ctQxavS2jPh/WbgDICiBuqDvgZ6RFEBOQ9mQXJ7+WUm5rqJckrvGYgvHtgOAACYO2BMFNi82UySmRpQmLwk06lg2WKYMn+RoNpnAbWI9gnT6VvL0lO1C4ke0jk/sECPzpLOvAxORbQOA/SJyv8ECgW0D00gYIAoMKKBwCXpqfLtzA4gaQo5iAAwJf1AFU/rlsDl5J0ZnWX+Auebe/EIS8FHBFprQDiOq5bBhz4c4ya2kN+BkewusgGb9HAdw3Bsof7Ta+BEhXdO7us6wlf56cmlrWzzrgOlg64bTE5gyH1ANlJld7hiOHeSApnTxdavgdZErAKQjlbJmkm3Nn02FqsUEO80DaCr6xvTStsXgQArZSsVyjfJyYcJknf6ypofhgXt+y+WynHVfwC9LtPEjKWxLyURX+JcB+IUhzagP5xOQIG+KeExu6xorPgc031XTYAFQzU02HM0CCt4bo1jOigg+QqMrEjHJPmSfue7t89jI31j0AeekRkSN0evHAJgprKHMzDc4/DB2zkTpbZMNG53DV1KFfyAijxlE4q5pKjclzQ1PmG4CWwNBwUQqcV+OcnB43vHDiWgYzj9ZQ1zIFMbKhtQMbgD7QHQC1t48Kz2xK3wEC3owDMK7hgMBIvAOg4+eAC0tYb/hLEWfL5KNlkxw+R/pv5Kng48jrQMjXFpkHSPq266znh5oAnS0xO8uNE33GBmvs7lm3P64fdvka7VCTx+Z0Jl8iyp/Qg3ig9JEXi4pjxKbec7TfhFwXBLhu5CMunskHF6Dc+tF+kO6VPEnRuYEpvMGryvP5Wvb32Y7S2ZGhvP39gEdofz+wuuYr33NqNCVYLzc0eT9MGygaGYGB/P4fv37/x49//sfffvrnP3//47df/vHD8///t19+++Hvv/3yr5//+vFPv//4/a8/7P/6Pw==);lineShape=1;" vertex="1" parent="1">
          <mxGeometry x="-54.591207212524296" y="1895.0984989401284" width="333.88223549722477" height="311.98490211969255" as="geometry" />
        </mxCell>
        <mxCell id="ScT8Iz7GkCcSUJIs-tXD-47" value="" style="shape=stencil(lZ3Zci65kaSfpm5piR247pl5D5mp1JK1RiUrqWd5+wFG/ZM87uAXh3e1ePzMRAKBWD1+Kf/2jz//4e+//pKff/zz99/+49f//Zc//vPPv5T/9kvOf/nbn3/9/S//3P/0S/nvv5R/+9Nvv//677//9p9/++O//v3vfzjI80//87f/dX7h//xLLvW31o5Ufv7vv/5Lfnue//8f/se/8H/9y99+xD9Z8RXw7a0nwSfGpy74MgBf35b+fi+Ib1PwqyE+rR/w5S13wJe39Qi+0e/v/90FPyfiy4/rvx+Q8f/1eT7wbQE+v03Fz4z4/1ruF769PbQ++a1mwRfab/ktP4Jv9L7pbU3BT9o/6W38+Pyd1zO91SH4SuuZ3nIS/EyAf/T5x1ui9X/eRhN8pf3/vLUi+EH789H9Nt8exqdH8AXw623pz9PxXW9jCnzC6q+3/uNmXm8JH6YlgVfYm+utdIF32Pr7b/+48nutHnj491f7hG+gOvfKDcWTapuvX3vHJ/xU+0NOxQ943/mWf9yZ+yzTVp6v1fiEp6M13lZR/ITnGW9T8FuVw3rug5EU30GVDL3pzt0B22foSTx3E+z9fbDt9xe+r5zcfbcW/P1cFT/w+ZN8320b4PqIZth4UlXD9kN/3U1f4eV99xvB/ulvqyp+wP7cf13ed+JV0V+n4xOe9EPXmyixtuq2P7f+wfd1PO0fw+fnLcP36q/d8glP5/eGJ33i+ISmmD9/Cr6v4re+gv3c33pTfIf9uS3tH/XzNvXovLwbFp/wDc5jV/2w8QtMjf7SBu/4GpwX0ecbT/qwv1bvHd/QVdjaYyq+4vM/XfEDn1/x/WWb/TSebJONl/Ucrze64tvrdv6Eb7A/3w3ZT/gF69nUVjo3OHyv9jodn/CD8bLf1stX+ml8h/U3fHlw/zQ9jxtfQT80PY8bT/dL0/NYtv7B7yXncePJ9WpqX2086WfH59d/+Qo/FE+uiOML6v8bnu47x9fgvDi+fev568ti/El8exn4X+Gr4slVbq/b6h3f0fVtqj83fuD6iL4q2/6B81vV9Sps/9S3KZGN+YrVfIEX52vjaf/X1+32jl8vi+4LvJ6v7a7B+a0v7+YTfoJ9tW/DH89XfdDeqBqp2PiOv//8+Dw1ob/wHhj6hG/wPOWlvd/xHKor6j9uPIWuNv7H/VNL8Pvib9aC/mx5Kz/q21ox9FBe2vgTnvypYuvfMPSZbf0b+i9Z79/Koaj8st7f8f2lYb7CJ8XTfZo1ulE5tJRt/Qfq84233yd9m1+3yTt+vk7QF/hUFV9xPTXyOTnUq/ZYXa9Y5Vf4oniyHwzfnpeG+Wk8huoMn/C+TmpPbjz5++llXb/jOZ6T1H7beLJvk0WSg9D8W5fIcOHQ5+v2+YSn+y5ppqDVl4X/FX4ons5v0sj/xnfcD5KpaS16nqR48qcsst0a2hvJIvkd4xVJ7auNJ382qX+68RPfN8v3HWifJPVnN77i+0okf+PJP0qWuZicOrrg+fcl/tYW+u9J/eu2gu/7/Pg8ne2fR+3JjR/wvR7NlPWE9++j8fCNJ/356H3d2f96VB9u/OLnEXxGf/B5Rac/4cn+ueHJfnB8wfjkDU/36Q1P8TrHs/684cu31rOi/XPDB99X8A3jGzc86ZMbns6j4zvaw74/O8b/b/jvnZeO+RfHj1dG7CfP73h5HD+Jn+hPuT6Zrxv8J/XVCvSV4/l8OZ7ie4YfHO+64Rd/3x/XZyS03xyfo/1peErtO758b/9sPKVzb3iKb9/w/L0UX6P7wvBkL93wgX4WPNuTvv4N/WvHb33F+tnwgf4U/Pie/bDxFN+44cm/8/Wc39yfE/3NG57iw45fL4v3p/GBfTIUT/a54eeD/uMNT/6d3Y+T84mP5nNnip7H8IG9VBUfrM+P/s7MGA+54YP9nBW/+H0FXzCefMMH97Xhyd/3962R/W/44H4xPJXi+fdtkb1teL6vdb+1wJ9SfI/0YVc8+3d6Hvv37pc5sN7mhqf4jOnnyfUYNzzF581emivQ545nf0Tw68H816OVrhtP+a8bPrAnBZ8w//Vo/czGB/EE+f2M91HS+p+N53idxJMX+78Wj9p42g8WH1sV6/csvrfxQfyzKZ78U4vHrob3xXs2+ROe4+eS39x4yhdbJfDqQT5I6sE2nvbbtt6b4jk/pfuZ86f1ZV18wi/Ot/54fy2ONzbNx208+SPdqlHHK+J9xQ/Nb2481cMMrRzeeIovTa2E33han6n5qTWxNHxpPHlNjLekRwO4W6BQgNsioFsAMwZJU9JHIKg+LypANnSyJNuaeGl81Lh+FqBVKrYtgrByeZ3yTwIYd7dE+eKq7C2gJyHIzDUN7S8OvaRm77C4LaFr8nILUPAodfsObB2k8SpO+CxA32Fq/nILUL3aR3npZwH6C+//+5MARVy3gL80qez8HpH6JEA671z6xQTgkTzrdgRgL520sAvQNZi1TvsIgBI4HUXzWwJFK1kigaqpqOgdqt39C30PL6aLlrWbtRAIWLn24vIdr8ePBKbp1kBg3bYGVTAsLZkMdmt5Lo9ENZklXR6JjugW0Ft9oVdX8uWIZvoLRevSYoHpjwSK7NT1fUvzlaalP7GA+l6BgBV7RwI3dY+rNO0WDQSW+Udcf1uWOWwLezHrYx7SwgjZKWDze5pKELPWLB4BOHGnJM0+HBYJlleN5c8K1MuJCwSGGYlkF1crND0C9BesEv0YWLSs29GpJgC7tY6LoTvhnv4o1fpsVVJxp3WzRQLLLnYWaDd3IBDQ8xAIuK0xsSKr5dsjUclvvvgPFJNo5eJkkZP4UZP02UMhL7eZRcZp0mZ9BJFAf5mEPytgnWGxgDscKDDN9w4E1sUHomXtj1n3oYC7ZSjwnq39WYFsVmUo4GcaBYr14wYC9bY1SKBZEDAQsK6jxVXqp8jB9xIJjNtLk8C8eOwosL67l5a2GgYCp7LgW1tjePA2FBjfOkAj31aJ2kPzRd1jf3Exx4/DRaNqxdzi5vdhLRJbgDz20bRH9wjAxb4Fpj0SFWmenLvZGtjVa229JyxIbclD+2JP3BHMn/Eec/scCKW/sMw44c66k7j+Vmj2ZKJNIFMvvxVTnmAxC/hfoO8wPbzf0aqc2TwUzudNP0AdC0Bm0Y65LZApYlwtJtCwRGlWO6INa3amB0K4yWtal9fiKpmPJO27QH0FLu4Cbt3XV5TgKwH9cFxYObvpVq5smsMuxYKtanPYEc2Yazyp3aoC1Dw9p5mhGavrt0AxAfLjtoDuJe6HmFMLBk7ClL60e+zbBaHvsGzzPZgd2AKac3wwx7oFhiWtqWl8mqqcHKs8SW37C6TItoDEl06env+CrNL59sTb8qh1v7cj5R+2gLg0c+B3ON+1qADVPuydk6T4oWPydyU1f7YA2UtbQLb37Lg1ljEjbdVG9TBbQO6HyQnmZR1gW4AqRpeF4rc+J2/3VAxUFUA6oqxNYFsg0ZcuamvMgl2ly9LYWwA/XNG496nDItKjovmHc3OTQFWrcguQ5lvWqnuMCVqlanuJe8dO6YMV21Hx5b6VpTtwcnfsufeTCqDWsP7/mfDaPaaIFyTSeWhWgfag3XqsI/sLeKa7Guvb9MWt0fWIbgGyZk4NR1MBSolsgWoCFJVexli4HQTqO9gC4mVtASocOXZwVgHU3l1jM4OpOZYFEbYAxfmWkRVtAbJbj7dQVICqy44/Iu/A5TIfDswnAapP/3CR3gUaBsq3gFzso/HmG0qJsQVw8w2NL20ByuIvI+HaPjwVRxyBrALkNF0FyMW/CBQmxRta6DSCG+gmQGGKyyNlNHSvAmjz3QTIaboK4MXuAsEN5FsjYcz4KoA30E0AbyAXCG4gPw9P9KUloX1ii/wdXIC60vxM94Dz8SZAlQgXAS5suwoEmk+o+LYAGrrGxRf04i0j49sCVIx47gfvPuTvIBfKibXzKkkwp1e2jG8CgfZWgcLWzE0gOKJSs3x6alkJqAAXLR+BqgJUr7HeSTveBVJ0ppWBNrH/YPd0fzBA66qyPxibOeFYaaXnqMNHwPeTAMXuP0LKnwQCdS/d66f7nr6Dlec1pldbU/lfWxB1mBdCA3zpqbH7Nrji1ihjW8eWnVMVUFWAOEZOZYMINDbWl6qZw1pBe2kpjU9jmsGPStB3gcovfROgQvuLQOEjehPAMIULcC/XVQDDdlYLtwWoe/MiwO3CR0D4KLgf+bI1Hn6HeWHoCU6c1LduAXTLpvZgVC6IPQJJBdASmNpVUSf7QFNDwDVg4Lb02hag4uojIERn3Ji/LBS/BQKtIXUzlalf1tTw6RZA02Gqt1sDX9TUfeXu54/miE8CgQMuN1ANgptD6yq3AAbVhjGScYfmuXaXCgS3qHAmVe7pP6ZDV4HAMpaYQA3UzLjQ8kVGYlUBqpU+wRwh4lxIfLaM6fkwF3JQTaq8ymR7ybiDC5cufLRevQtwFv8EBh8VQOOk67KWgfm4Ew2Vd+B+r2WZ19Kxh2ML6OwNzh5/5Io/CWR+B9FLpUYhYMmWFSYRW1UN3VLYEqhGk1v4AFUN0J4KcBZQotPAB6pqCRwmWxLwISuJ463FtkaQHbDan5KwmXRZm9VhE6bNV2ywzMNKoKiBdfiQ6UxnzQ4cwmXOxynD9GIX3ygu8+SspXFc5iAUn5Vk9LQh8jsoy/rg72AV5WfQAj+SeLsfkwq+EpArK3c+D1Y2fLpr+DuImvkgI/9SQLjKG88uyRdydqp1WMa+mXlaxUd1xieBILcrqvK0RfHWUAEm7DkJbWPgR3vpJoARXZtWlINU7U0AU7U3ARxqk16R+k8CuL1dIHEI+CaA4dObABXPXQQejhlb8dwWwHjrTQDPw00Aj6jR0aaFzQZXAXSPbwIY13ABbly5CqCasQ+XgqCanenEpG+uyBJ31R9V2VUgUPc6R6dHf0HspTNIJ/gLskrMzHAVQOf1JoCFBS5Q2Z/O2pe1BaiP3W/RVNleyjavKnCP7WI/rfC8SuK8Jh72t4yC+4yg4lWSWoczzy+wZmyIFoaLzMBKmQ1dox1PKfpwLoAJ7azEzinIWt4E0GmyVQrSDxc8atZsZZgc+smaYJ+vurWfNBAnJ7+9Mo+fJ2n4gJlEvNxxcMTkUY030Kg/Za2ScEU341TmSjYUJ/fMqS4uV7J4MTIz10wLi3HWxOuv+UKYRhXT0Nb+KOT8wNP9Ma2/OqyylwbuxpMLi2XrMHo7bahp4+4Lu50aJsen8b4ENf+PRfVxf45liQkstRo2OrJiWmJMvVwrdzp5FBb157B4ZEV7/JRt6e9TkHfYUF+OaY2qZY2F19OG6DLz17BrmCeXjKSFnAVDCsOqvwtavcOGuLKb2W3KauHJZ8uCWVgV16eNBuLJdlOrStmqOS2U4s/hfjjE0hJ8wMqT3tWAyDxJzkfV4X3dLdDMTvvGSxVJ5kl7VTuCgkmENkooY1yj23nJ3JBqZfcZy2y6h6MwJN1ttEXGRoNuVJdcrr7xEpvNPAnMBgdnnuxl5yVjfXGz0bhso7eheQqudWxdk8wZ77vWbPQu5tWbjT5LyF/RbEg7R5RasVHJTLNQtCQq8SRCd8N48lzS/ETC7NsZ1CPeM++3RyvaufHslD3oepI3X03/JwwMnZKELHicDGfZ98RENEZPwkzN1crrQ3y256f3bb4/yZ+q1nWa0P6p1UY3Y+1NLdrFx32FZ1DbUjytT9YSkYcn5yU9j+zA16T66uFJhKbPHwwrHiIjfX46786U9GAVQ1lqbzw8eW6qvx/gx6sY/ifxXe1nnhx/8uT2/IRvWgH0MBOrUSQF+KLnJcTnb/2+xRIDfFJ7KcRLJDHAP6qfg/V/lNolxEuNJOOzxVv4+bM1Nj9o7zk1LGdbspXOPhjPyUPtmQe7SbLVVPPkqmwdZQ/6m7lrDuHBwPKhCtb9jJMjzV9+0B477rrdX6BvfXRnwnhUtsoDth+Ouaz2JNnPPlqQ7aVznSseSUXtfCWm/TX/OqF+TksZ4BL6X+liX1FQ/+TA9HtRDUQabt9SPDx1t28pa73xWf0XKtFOVe2HjPGEZO3FXESYqvv7ZF+lqvFwLjdK1TJJaC8lG2WceNKn+fsJ7Z9UfT+Tfk7GS8T+TqpaB8STUU5uUH8f8U3vl4TxzGTx6oT3V7Je8IT3S7I6wMSTCS54irffngfP4+V9Kfnq6xmex6XxHGTTtv0Q4rv9Pq3nZT9TvuN2XojJ4noeA7w+D3KyX/QJVQic91U83i+mD4P7q6p9G57f7+G7dicmjIcn4y9NWLOUrGMtYU/pxtv9hZOSp9+PyPVu+Rr299PS8xLYbxd/lvJN+eJf0H3ko4+5ljVbjQxPqj7hb7PPyb4tHh9A/6Jqt9OD+dxcNT/1MHd50/P4YL7mpG+z4sn/6hrvejC/edLh+jy0n7PF0x6MJ59yAX1+2v95qr/Ak42ydXY9eF/kdfl9iodc/F+y927+dYC384X4S3wgwFv8AfGX+Abl127xkwBv8RnEX+I/iL/El/B9L/GrAG/+Mtkbt/gb4q2eJNifS/OhvP+rkQfzeaxGeMbn/aND6pM+ofi81Qs96L/X7Oed9Ge1Aq8He4Jr0fgGT0qrxe9f6g6pVUksOJ5cravnwXqDjZeiPI5f1a71YA/mv6p1rAXx9uH6kOJjdSqF34P58ZM/sueh910ePyeCgva4PUD2f3vcPqGGvmaj5LjFsNn+T3jeW1b9w/m10z2uv0/5vma8qwntk1a1jSfIb9rEgyB/2n19KD7crKEyoT3ZhurnhPuzTasBR3v45Pf1e5G9feoHLL5E9SGP54vJX+g26SBzvU26xMeonsSY47llpGdtm89cX1R0/2QksT40MBoPpPuuG59h5vqo5vU/dD9uvMU3qFOpW3Mt90N22/8Z+8W6+csZ/Z2Nn/p9Kf5wGOy1/gTri6baY0F91FJ7I2N+eZj+z5hPGVZfwfRlI+n0h4L6fNiYwIL6/JChSUctcgSdQffSa4374WMQ/Qce+dJt9GVQP9m0HiOoz/QGea7/HKo/K6+/5d+ZYm8srV9iFtlp/mbF+Ni00dA8qXom3Z+VmaqzMXagvTTNfq5o/5zB3VpfTffFrJrPalj/M5vuZ+5Gml3zuQ39CydIb5hfmEZi11C/HXppYa7B+NjpR9Dnp/bFW78DUp3b4MeO9+l6vN8B2VXMfu5Rk6r4752Z4my0TUAlkYxuNepAUt7EqK9LCWOZO6xofHhy46XZ8zzk6XBMy/AIpsTyQQ3c33TBY/9U0fqxqEHrJoAtYPbGUZNZsd69oI3NeLtPo1wgUFUA6dCLZZFytI20w7EweU6xHsrC5Js2PW8LBDtPIhGpMGl8sdRlZeJKu5tSZb6GYsUQPJBjFb09ol5WFwi6ZW8C2I97E0BKRhcIuHCKlch07ry2GtLUmSutWKv24Fsnq1eQApLsrG03H4UwX+ptazcPaDAkURR1wLtA0GN/Ewh6TV0AeQKyToiNmAhuAgH3hwsgm8JNAPkavMEkYIS4CSDnxE0Ae2BdIODNuAkgM4dlTSPuj5sAsouYHRPxl9wEkCHlJoAcLC5QmR/3JhBtPmeqCd7BuHAC4hnRS4G/cCFiCtgJbW5o7nxEi3WYddZ8pu7zYK1hY6Izz1Q7lkBVgcD80SjWZPJ+4+jKPAHwWGRFBYLhLtoIxkOcV7FI64oMLGXQCjhNi/VmPiG5WlUBtIyr2hqF0xlnvllSAeQLqOoOlICL30nuMn8Hp9HjkOUZUCP0bSWiM1S+t8KUjM2acEs0Ake84hKoyqZ7qQQcLB7H48DNstl2pbEytk6sEjCZdfWBSjCFpNsq9YjpUpJvH7PdvxLQ7u8RsXXqiZvM92bk/YUHgh/SeBEIeIqHHdHFfpxNAKwBneHQI1oftgSGKrLKVY1r6LLWgMJ6KsPiYa+lR7Ip6JUD/xcm5GD0ikUCa2XqFptcvQWQ6dJ6cWrAn26k8VsgoOEeJoD8uFPVTGV+lUP0bQLfI1yvzECzBZIJ4LJ6ymDwS1vPbZ3MDbU0vlQnVq0vq5rbAqj5lnGPLzZ014XdHOdrLDvTixWZjZ9sT/ThJIjQuHZoLeWsaw+Hi6y5OuaxF9MhZspXgaBf5bGhmwHd/12CvKCbBA8tuEvQMb1J8OiFu0RwKnRxG+vwpcWPW4CqWS57tvFNtzQc0jrzey0lvW3B7DZrQGsjGmkhN10LOP99HMRkQ27ask425Czp1YI5gNZF1xbbx1b23xbvpal5oxaMV5w2GOqJ5hbId+hcynYGHchf4F5JH3TQUzThTi7fzuwna6iGjWckqUA4hckFgjlPYirGk6RUIJxV5QLBNCwVCKJMQw9QDzidp1Yp9IB31NqwOw+AP7tVRk+NaLSIJqaDyWo3gWCOhwoE0+GmGnLR/DkXCCbc2bSTaIbe1EhZNKXvJoD2sRF0RZMGbwKoBG4CeERvAhgOmRpKiCY+3gTw2r0J4NTKmwDOxXSBYPLmTSBwMF0g2t4iEMwnvQlEWsMEoi8t5RqNM4t2i45gUvnUBsYPSsMvBWyabuBVizLeAhimHWq3joBm2poeR4+CRhITHSOaKSn5phGMUrCxflsgsAQkXD4mR11t0uCY0bhRnXU7kUvvMqR4ckDeZnue8kIWkGt3C2DsYagPtAXQ1jC+rPlEcV2d5x5E+7p6KDPwqruWLE7mtPJJ5TNxyL/riZvMKuDR7y2ASqBppGwGw62a1hjNzHVSTTXfFsASCWMi2wLoi1YN6czCs9CrVmLNwureio8PHTBntCTgMmuU99PNV7FfaxU14WYQE8jqA02uIPWqjcPJHFCWi0CPqOPFxZ/hGAIprJpBYsRZxQdfWcm0RhBESMpzO4PRhEmV8ZzRABbJUm8BPEBJE+dz8Q1kXHVbAJM7j4YptgDWej26vT/41b8SkFDzYv68/b+FX3mxO3CeuKgA3Q+H4b2pAJZIL01Qnf1LNfBLexZOlS8XVQ/7C9T1Na2r4KNo4isBiZF91IzeBYZqjTPYjInnJX10kvW0rEMvxcXG+rTs6Kpcq25cUOcSo7/Q1G5dAZu8dQtsAcq/TqO3OcYE9y+Ibl08nn3faNLwdkwuFhBrZnGx5MzaEvIxpf4rAQkMHluZXjrZER3cdZLsxPEotmND2kvThxuWPlrsDhwi/aYCZDoM6+RffKEcB6aqAHK/28T4j4zsXaCb5uOJwNtV1SM6uf3K6KE+5n7fBYyPaXGMbBR1Xj9SuF8J6InjloZhBtZaqIyHcZCvhT7QSLZbFx7R8WhaJxbQ+4EF+tJimEhgKjFHLPC4ALW+DjWlI4GuhSSRQNNCkkigajdr9NLWHh8JmP8QCRjBeCRgHU2xQPqegCtjFji5sW+9dJvK8hgLSCfHR1nGXcCCOZGAEY/FAo+/NAm02xElAePOiQWe771D0W7GxT0KLV8eCfklbLbnWlie3JLdcQtrCw4jvj0SUspYXUgsoBZZIGDZ40hgqKcYCyTbSyhgc6IWDx6vzfy4hZW6tV2OKFLvGDXjWthrWa0AenE0tFobUSyg3i5XMVUb33Aqp+ilH7MqV0Rg/9h3oErdsi7ngSLrh8Le3oE4UcrUYM4RgFUqU0kSFqc5P8psf1agXywBFHDXcqGHUoxoNRKwSWiRQLkoAXwH64eM/oINoYwE0uWRyB0oNs7qCNA7PNZPvDAqnZf501xok60c6VOl2F1i6q0YSgwLGAUPNS7XIgp0DW9GAjfbmMojsuUHjgBTbWZ/aeJuLJrYWdzA4mTysYBvcNxN2VzwhbWP2eZPBRv8Yx7LZwFapeeySlSFlW4nAjnf1+WQYjHmtDAzXynJqrDOpUVFqONiG1Pu9fAE20vTxXuI6N0WYCZxjZ2weZKaFoofAeZ2Fq6/Y2Ix+bsG7haWqZyWfdMalFVM1jG/uO475YuawTLdrM1Qx0ehvZRu4Ryi/E7aaXEEsGbabAHO428BJdmYyNqW3IibXFlpHgcH+qadBs5lWTPKKXiluKD569w+aS1BB0+x08v6kJfY7eRMzPh323Qc/G2XUC6OxbO02uCxWtpesbj6peiUkcXFkUbesQbmBbNF05lWJ9v7cteNRwG4fDRpInR1pME2VuXFvYPJ/LyG6//Y/m9YSv3Y/mEekce0KHeue963Yi/MY+exoIv3mLVZcP1tauZHp/xX+EfxlFt5bP8kTIxbK8ji0nfHc0fiY2Yj0wzf8NTLZ+872bq54Um/OZ7vixueaDXtvpus34zVeg5MwxrL3uFx4+/rJTTfxJMDaOma2ZAm+Yan4NqjrKMbH6y/1UlRr8gNT/bAo2nCjc/fwhe0sG54Khe64clsdTy3vN3w5Av4ema0in0/cOfNDU9VzL6feSyqn68nOl+GJ4YDP+9P9DxWOBusj+GpwuGGp7SG6bfB/bQ3PPUM3fCBPrfya4rT3fDBfs6KD/Sh4Ds2od7w5LL58zOL2g1P9qHja7T/DU/2+Q2fv7UfmDvphida9Bue/LUb/lv2xsjR/WJ4Kp92PPdVO54bt81+2/jgvpbuN45D3vCBPs+K/9Z57BPzWs76OrHE0vFc3mv6to9o/wi+YxD1hmd/yvshqVfkhg/2p+Bb4B85PtCfhidSPMdXDGDd8IE/YniqD7/hA/1sXb7fsv97+Z691Etkbwueaeb9+Zlu5oYP7gvr5A6+r+GD82L4wP4X/BPEQyQ+EDTHW/yhcSrq0YR0Y6rNx0gTOKRsOZw2g/iAsn6P4D6SKoIW+dcy5aIxkdWjuesW6WeZGtg6pq4fjd9uPN+nUmDWeuAvSKVIY9p1a7w4xVr4/FIB0SJ7Un+/BvaY5JM3nvI2j5ZltUh/Kr4E+0fXswTn0X+f6vv8fXMQr5B49SG5wfWR+G2L7EmdapA4Han2TwvGihqex2Ym1Z/tQX1r+BrkkDVeUZkkzkpK6+Sxutr5UWfw+8V+n+zPpPrwVNTh++rUEO5fS0aHNTgHqbnjyvrQ2uNqR/8l2dSQKN+hfHgN/f2s8a7asIQ+G+VZxXhytiksnL/I9r0KNqBk1VeVW1eNhbpmHmOr/fGVx0BlraOqiWtrtHBx4/l9lQWPx7LZFIrKLdZFyxwrj+E1ut3KYydt/kHhxkebQlG4/LXo/ilM3l40f3fmesJ5L1pBUCb2qFhbQWF/uWrzUmE+hqrnsXQe86j5vsJtcDYlvbA/W/W8F86fOp7HEN3wWHt8wVM+zqa8l8JVuxc82QOO54bTG55a/hzPYwOr3qeFOfOt1rXwmHSrfyicXzAqgsNkDfdRVd7R8gTnUfA5KOO+4HGsrvHGTx6LqgR3mXsPq5HAD4w/NOOAZ7oWn3rIFPBNOXBOxc438diHYviG9SfWm3AqdvB5pP7qozr2C7yQ+QVj3Jrqz2AMXbMplQXtW5tSn5lx3OhKcsF4ctOavMzx/Kb20hnLid9L8QnvL2tWOR4Hfi/Fs/654an+zZ//Qf1v+MTxqxuemkKa9j2e0TL4fR1PjZX+PMxKbut5Sozx+XUe0MT4T78MHCJ/pFuPwMDv1dV+Th3Po02pTx3X34qVU8N4YLdhXQ3vr24dDo3H2Kr+SczL1rUH6Uzqgv3cbao0x69samMquH+67R+OR1k9auJ5O8O+V8b7xcrdE/uDNoX9jKyD/T9UnyceAz7U3kgP8zXYBLAH7flp9YSYDjVieo7OT6vfZqogK1bBWq1lRFvMIq5X+2TmPI2ED2YyVsXJXPTJC1vwnKfHGEyRhiNZ+xbnWZMVxnZuL/BALFfmJyOrRr2/8ZqoYSLzpDuTJyYk6y+q3EOSbUoE3rsp6/bhut6Nl8acgl3AW01mG28dNJyIYYh21VHzOv4byeotUMHj3ZM5Xgntkn0N6kXKfUtNA6tMZXuu/aF4itsaeWKIl0LyxPvN2BwT2vHHzLH14a4rvVgwbnLw+r2o7yV1Tewk7mS7/D7mCS7Pj3kOa0tLGLdKXRODCe3+8311v5FdePaPBBLwaozx+x/+/od//vlf//Knv/z1r//45++//cevn///n377/dd///23//zbH9//0z/+/Ie//7r/7f8B);lineShape=1;" vertex="1" parent="1">
          <mxGeometry x="329.7752962007844" y="1889.7996536497014" width="195.1413167749024" height="313.0870284566919" as="geometry" />
        </mxCell>
        <mxCell id="ScT8Iz7GkCcSUJIs-tXD-49" value="" style="shape=stencil(lZ3Zki27cWS/hq9liRl4Vnf/B810JdKk5qWRVA9/30DTqvY57qgVZ7/dwX1XJhIIxBx/KP/y9z/98a+//SE/f//H337/j9/+95//9R9/+kP5b3/I+c9/+dNvf/vzP/Y//aH89z+Uf/m33//227//7ff/+su//vPf//rHgzz/9D9//1/nF/7PP3np+RjpsPLzf//5X56PNv//f/gf/8T/55//8jO+1vfwKSt+fY9fH1Mfpz8Er0vhieBpKjx/D58fc7wFb03hheBZV5Lg42MVhVeCd1tIhJfnDXj/WLaQCO/2qo3g9jADNkH7WPqZJsK7LuSCPdM+ys8bOH088Ozt41F4hl+vevzSR+kEr4/AG+yZqocvff65K7x8zCnwCWe7fPSf1z3jypSPmgVeYM+Uj1wE3gbBnybwCSuT9VXLR4KVyR8jC7zir7cl8AErkz/qzwtZPx5Ymb1uTeAFHyZ3gZOM3PBH4HQ88kf6+Wh/nZfv4I/AB3zVvaN+fvb+KTS/g2eB037f8J8fZnwk/EwGp+vA4PPjgZvvAufPJPD1+SHu9/DHWgLvvO4iOJ6PzO/aFT/wQ6WfD3dKn7v0u01peN43KrT3L4AoyyZX94ln/M+7Pm1xhc9Tu+KD3xd8DdbH8QNlguIbXlM3fH/r+ftHeuv5O2oIWfW+ND4Fy3cCuSiebpOvu+YLPwORLNrWxjd8nt4Uv/j35X235vvOfbXxdJXnz9P0dXs+HwV/f2bF836W63YLJL5vV1c8ve++/YfiSf6Uz934hc/4POVT+v2Ab7Cfy6e0+QFP37d83uBf+BIoRyKvjobBeHmeildd+WhV8WSHFd3/Rw/G51HVsaFCtd+uK37i70/B90+l6Rv8aoqn3/9S0L7wA9WeqlrSxtN52dJenmei/DS7INAe6keT/bxQOdlfvyu+4vPPR/GkRVY1bsvWN+B5mqqRG98Rn3/ebyXh/m96H208GbhN93PJwe+PqfgK+2ebuI/i6X37x5MUv2D/dNXHSvncgd/gxXex8SQPu5osGz/x93X9K6q3Xe/rja/4+/q9KlpoXe/H0j5vnG/w0/AF8cvwpJ8P1bfLlxPkG7zcd4UNqaE248Y3dh8ZfsJ5H59f5ws/UP58WVo/4Pl5xlL8YueaPM9E/Wea/GF5O1Uf2PgF8nPqfV3WR4H1mZ/a+A94Ol/zUxp/GfkP6htL98/G0/249H0r63tfb/cDnvxgS/WNjSef31J9uLKvaqm83fgG8nmbu3IgKwvcY0/LXyio4aYvhfwHwuRHqj/L9FrRRt2EZgS6ZNKjVkxt+JWPU6ArgcywTZjyF/qn3+M7gigSm0AH5xCWEmhnp6SOxjo+nRPfEeRu3QTSJQ5BDs9EZeL4TrISyDo/BHmkhe6FK4HkixPa85HoS98I9V0CuYR8lVrCO/xKoEv8Slh0RP0dvhxLv0548y98mY6/TpjvvXRFU+ts76WEQUf0S1X/IrCz6hzRqQQKrbkQaKGYEf2usX15JF9WAh7RR0MImxBcKBJeaV8xvW9vICNQmO3ccVMJtPmWKmFt4iItNTI3nm6H9dGS4mkjLTVC2vo0k77Bi1OpsdNtaux648momGq09C8t4hu8KEkbT06H+XlKfsA3fB5xamw8K/HiZOksUIdGgTeelE4zEjaeAi5mtGw8OR2G3uQ9o1zp6sTceHKCdHXabjwbme1nlbAXdKJ1dRr2goFAM/I3vsN+a58uyy98xfPSPkMOP+Dp+zZ1Qm08Of2bpgVs/OJQvKx/wyBWVSOwf7mBvsEP+31ywlZVl3vH9TQn3cZndLqVoXjKzanqxNn4ie8rRm8fqNMVdWpsPBlRRS/VjWcn75D1nKiJF5M/E+WJOcE73xfF5DPfFxYk2HgK2lnQYvB9UdQmHWzkF3UaDk7TyWprjRQEyeT7bjw5PbOer42n/ZA/1ZcvfA6CsuJUGjl4XzmPg+VzVo1ssIlvQeuN5/QFOb8jyhsRl8PGk21sqR0bz0E+0Q9H+1T1v8MnxaM3wPZbQ6fe3i2yf1h+JtVnRkcnbFLnxBif+Va/jKdcSMdPNlgveHKSfp2mLzzLN//9hU52X//AaaDfdz7sldD7ZeM5KUEzbBIGFW749xJ+cpCU4HhOSlB8QSfmDU/3r+MrWsE3PLps7HtVDIr7fuAgSlKn7Wwor+y8z/4pIX/tvGw8uhU0CDoH3tdJvaMbz+sp9sXkIEfSxNc5UR9Iap9uPDnZkyblzMWeUbXvNp7OV1L9aj143yW1jzYeXexqPy62f81PuxL7ODUbd+Mb/r74H1bgTtSkvZUxiP5oEvfK6AB61B5cnDT7fD7tD3h630eDUhtPLq9Hz/uq6D21YMLi1NZHg75ryx+QJ4/6rzaekq4e1SdXR9+sBXQ2ns67eQTXCPaD2KcbT9nlFmtZA4OgSZMwDh7Pi7hAN37g/tf9wPis/rEQ3+x9Ocl12vqTf7Kofb3xpC+Vz934A572c9H7Yg30n+zb396XzmO97DdKSrAkoQDfNA4Q4pt9X8aLPhDguzrQDx6TcsSfsDiptJu8mqhPDvXvLY4bDk0aO3hMwhj2+6QvWZJEiG+OR3/7sPXMcH6n5cCzv2iZPjAxaWZdvi8lUS3VJw+eo+HJCJSlcmJC9gZRmGoqIQgXPram5DNNrsRNzqxImqp1CBzcVjVlcrw9a0DyEOg7mGNnE/Biyup5PAT+C9OOGqre5fIO5MtNxYTjxMtjE6YTaFmt+CwmqH4z2Z6pFwGAhKYe0UOgD9fUpR4ThskwJHQNusWE6t+BCcO2BhKGlRYFyzrUsRgTLu/AhO5bg/aSxSYjwlTnZUwo/g4kW608OCao/REQ1u3DMUE1mJBwOaJMcMkXEFzpIcK2QtRKDgnZzwMT1E4LCcM3H1U/Wf5JRLAsnZhQfVmZ0P08MEGtr4DwVXHz64T3TtwJ8Pg7EKGYxROUZZXb/cCE4XuJCvXqTS4xIb9LuGgC9A71YgcEhPXeKrXbhUIfrt22NxMu9zRtPkuGiAjdvIMhwc2xgHC5FJkw33ukcTE4yCK+mpQBQX1mIWH5l6agz7yJSopKXu9pJkhcey2OmyxT1jnw5pluMUHth/XpHL67hh7NLYgJ1d+Bkhee2yMRIdnmCwn1XYLaD8FLZ1PWQ4KGIEJC9y/NBD3TwUsX8xItbtvhd9zCMPQm9McI5Pcs5ghcXI1bTbYuLI/cBHXdLnR1bYIvKxKaiZmvZkPfEZota0CYduIw/arbLRqsUjdFNyT4mUbCV8LYr77DuHw4zPFyJyWXNhS/UBZGScq8bD5Ku9wENZoWFjcVq+baBPLClXl5B8qsKstCH4vrr5f5ZhfG2oolfy9OFqmWXX4IFG14LPyxMFxeH4t/BISkCUorqHr+ymf+kUBl1W5lLewbUa0xS0wodrEHBF8litrWcnskJvgqBQQNTIYEPw/40pYKGxPU1x8SNBgYbA0rcY8Jl/PABF9W3N7NAvQBoV/EPZ64bp71kKD2Q0jwWxTFzDA3dkhwnQ8l3+2OCwjqRGBhXD0Sx+J+E6p/OCa4DUQ3UF03cc+E4u/ABDeaAsJlWZmgCRBMODWQ7xIue4kJ6tcICB7ACwmXrUHtFm93HKXxNcsbXQujls2ayh0CFapYpnWgJDZP/VgYym7WUOkouvQOt1uUjKZWLJuG7bjmET82LTfhEn+gR7KuOIFv5lSKuuuRCZoSFBIucSDafJ5kwp7ETVCvA4fXNsFdwJQm9qpF/ZEAwrj1iwuYEmE3wV1eFNDeBNVmOMbexiUXhKL4p3jVw/504oZpM5MF2bh4dMmOa1ObMgX5Hc0KPBd3cdoEj6E8tErr8khYorc+V/2LMNAVvwmaxDmwHrw/ljUzMIu2W6XzSZPjv6Bq6MA6me7RsoGFj5ug2v3A9mfdUsOD1Mmezd86UFnv1iN2De5wlC2VZ+B5OMWmRsCeRVbvtgbXnxZtdry4RP1Vb/oDAdtSVTMtB97Tp+LUlpXu6VNyaqtE93S3qtVDoFVq5gLunIZozcEOgc6Dh6a458kmaHitYybrJqga2rn0uZsqza17u3W0Wp3P9LDd2vlMW7n6JmCPs3H5DuSm6PPyDnimp+XNcHebU+BqHw6PqN9AHXMS+7IoTeci+mUXe+cTt8yjy805TlWsvENDfWkT9BZtuJc2QVXphsrJeCzSxKVMw12PjRu2JdP5GhYjboJ6dCu3kEtmDnDfluHRMu48Pqyx+aroddgEvae548CwkuXFfQVHMXOgopU1PCm/oIWyCar+lM8z+B1BL/bCbTqKXVkF63yGh9cKFqoOaz+6CaTNjGp3XEFBNrxWoGCUZhM0papgeG14zknBar1NUF8lt3zbhG4EytHdBLWyMmrGwy/2jFbW8IhfRlfL8JoEbnQ6POKX0ODYBGl9uAnUFWETdGskvKfHNJcXNxscfu1y99jhlQkPt59cJiq5n+1YZtI8WDs83PB7+AZy5yZ3cJuWVzkX97h8NE9gLlRDN2HaX6CC75l0800OHG2CbL5NoAtlE+SITo6AT2t6MDmbYlqV2mQP1iZIuHlOtNinVScEdb6bIEJgE+iIThvOsgmkYG1CtkeiMz1tuMycGAea1lF8E8gFfGrhrRoaP1zVyOvkdjbTbNHJA0am5VVuAhWozqa+mcljEzZB/N6TDb9NkCqRTSBNYP9vKckIivCndb2aDfWl+WW1/UCgNi+boHX7rKxPK5jYhETnYeg9vT/lpFUadqZZlZ7mDZ3clXEOdapNVnTnVM34HCl6B2tfNwu2J5lTr6xNwKbM04Qxq3BzqSZwRBv9hWVnmudAzGVnOvM7LFXWZ8Z3ONe4dSmhd1iP6t6T9aVNkFSec01S3WRSZ//kxgjLigLnw50lrShwcquqV+eEHwj4Dtb8aPIEpKM4TyVgd0kbEnba49AqmUd3E8iOW97Qa2Gt5bIqwsGh2mVzSAanSS4bFDI4pnhs26IE7PRd9UwPVh2W3dNjYpuo48WQR+K671WtERJ3Wl3WuXAM3q1NPVhjoLW7CfrhuJfEy8H1A4FUuONCq0og1+MmSDu/096LlrVZP6rG0z+bThU6DcpolUw5GTwmYpkBflqs0YmzUZeDvT/LMqQGu1qWxXYHX4rL2paetnj8SPodMqo/JwAi75DQ2l1WYPpyd35H0DP9YIz9hOus9yGlVC1TsEYg7m0kReduR8s0sk0gV/wr9PtF4MqvZY6QoCHmsoBF544Fy2bc9qBl9LQerwM9WGtqxO9EhmgvTb2nO4emXmkEPxCwDYT1seg8LO8QrJEshf1fyRZfhIqOwWUZ5Z1bJa156eWLAzysWLnzhMNXQ4MfCGSxL9PuN4F894cgq5RZdZgqyDaB3EXLsh57jjafaAI9oeG3LB53chN4WcVtd7IfeJXkUjxdv+l+sCrzk8FBy2rOzf7wh7Pc0NNInbbG0lLiTSBHyCEUJVBM8ZW990WY2Ptv2ajxxv6lC4Ezc14ZiD8QcGtY0ccmZBLG5mRunS0US0dqHAFfS5MYN4GilsuygF/pdN8SihLIAF8Wn27cJW7Z7KJW2cpaNqmhRi8tKYaNGwO/MtR/IAQvLX7vxvMql9UDNe5deiVg8yWf7pAiueQEqk64EvCOc8LDqsONEMglJ1COrhPqwkTMtTTiVxc3qVo2FYrDCYfQlBDcD5ImeeoVgu8gM5sGxh+WjwsbPO5sqYlfefrKIdigquA8SOFKZb/3hdBw/tcy12PlGatXAg5Jc0Jln8CNgHacEwrbcTcCapU3wpsvnaMT5wTUyJzAfe+vBEr1vBIoJ/FCeN596YctRdveZbGlaJ2FTo1qsPmyElBZNzFTZvQdRPJtQqD+iDAunCDu93QZkRAQ1eFUVLOYkVyHMiJlXezp0tnKsjFMmxDc01KtswnRI8l0zsYhEVNDC+fzuWZcAk+itfw4HQZYzIjB8eph8Is20CYEF4pYWSVwPZodd4b+8kuLpRhMFXZbtOTIgyVhnRL4Ks1iL9wje9lQr5Iw/eI4Qnx0NL/0sL8QPJKKyoeVE/MvnWnZvKyi8wXjuF9NPz8JZ4Jq4FR7lEAphq/anB8IgV/DR6ij/WDOzdcU3m/dp/YX0G1nrSYy16G8+j//QECjybpf5EAYD83BOlPF2O+tX7qxOWDl0DlQQy054gzy4neQrm2npRlHaaQoMAfOTStnePXS/o4gBygXVn9sQHrm3NBlpfWZR4eupgmxr/k73xHEQftqyP4dQfdSEPZvqmtkHuG6mnqwNgHHRDeNNKXF0rtquPl0sORwsxh+KZBLVQ9Q4sa7q6pyksKAtoR1UtCHuqiTOfEgkZM/XpSAgaOimnHiyq+TDt6VgLu1qNQ4fW/5HUQ5OZ11aVmtnf8moP1geZWp8Ze2Gr/U2MrKmnKbOFNtWc/NxJlqnjeTKttAybZGIIyTpudtAu5WSxZKPKZoE0RqpIJzG1ZSRTcFToRHL5RNoCKoZa2IUuBvtR60iWe1rMcOUMbaspPdPZVAusbJVJN34Mz+k939KIHeYZrbbhPoiE7zrL+mU39H0K3xYM7JXBpjT+wCnmY/pIdT0Ke9NOve06oTzpwA/gva/AvF0slzlgIL/myW6cBZZ3NYaQImCk2v5ETbew5rt4nOrks6L/ocpzVDmLwluvrseUzfSYiW5F9eH0tzYqfSSYf++drhMS/TmuKPT5P3O/yjeNIjZ1ULevDY7arVyWwkbXxSPJlts1jiAZ+Xotc4j3qf1pGzc+lCtrm3XLmQbc54VKKic4Q5Ezxb5Bpt/2lz8TiQcaYuKp6u75OdrHjM9zf9oHFOt9XmNv5ej82F5yqNRx3VjS+ARy+AxhUUjyUOYAeDafXUbI8Pa/1YUX4OD+dxXbF5nGtUK5cMD/ttTE3Br1E9oaQ+VfQbDWsLU1G+jam+gYryf+Mldb2ifBjWCIcdx2NodWNQQ2397SoX1prHKKig7vr8BV3rwwqCOFNtdHUMcvbFsPs3KLduup7sXDpTkvN7eA2H4HijYZ0nC8rPYenthc+X1bnF1eVN8bR/qgVnMHJyMq71+fH8WulgwWjrKP69SP4P6+xWuKmBeTIK+lZG9v1GvslhbonCrShsnlZheWJzfguPoUsW/+DKftMHQrydd8TbnNMQb/s/wFdbH8bb+tN69uXyM8APW0/G2/kN8P788L7dUl5DvCRDh3jfP9QHyO5fzlPuQ3vN81jdbjGbgvZLv9ynpM/3oVUvBXPQutXLZh6D6cERtDe7tTPMaF9svOjnGTNJuhUeZYyDdyuFytwRz6quM3fbahbPQvuoW2+UzM25quqfGe33Xi02hfZXN/s6oye+F5WfmVt/FYvGoX3diybNZO4UVvx7UbS8W+tWzkHoWe0jTp3tWfXVjP6ibnOyuIph4x99HmxFmDSHIsR33c8BXnMDIrwG7hlvc6sz6nsb33X/BHjJuQrxydafm36ud36/2X0d4que3wCf3/r9+ebzzzeff16en7uualQZI+ltaNuNjPZ786QM1P/b0NFK3JOpDct0wZrTZuWXnALVutadZ26WbXOuM7fJ7S6vAvxjz8MdmjWLJsKbvArwJq8CvKZuML76eQnw4631rL7fArzpYwH+UfmMeCv5D/H9rfctlnbC+7m4fAuaxa+3zktWf0KIF39CiM/2fRn/2P4kfLqcL8b3t57/og8EeD9fhH/ePF8WvA/xmjIX4e0+IryPoeD6gmqp9iG+2H6mWSCWiRzgrew2xDdbf8YX22+Md3lF+KHxwRDf3nrfof7AEP/YeQF9oPbLfcH4au/L+GT7k6Y3WdvLEN/s+Rmf33qeejlfjO8mTxhv9jX5S2u1vGPGm786xFfbb4zXhF1+36zphiFe80ojfDE8PX+yzNgI33V9yH9Yk6ZiccvUU4ul35fKg+ujA0UyxnM33u5TisfVx+X5w6P/TH+j1M1X3dYnPmG8ryy1F0L889bvW6OJEC/7M6H/s1gHkhBv/jSKv5fh8irAm30d4M2fFuDNn4b7wfzPAd7T+SO86T84Ytd6NGWesGujwoPfb5r/xhVGp9RsKZ7e11phJ8zHKOZPThhP33jb/+SvLlX9Fdyw8JSllffwYl+E+PLW85t9F+L9eRivWawRXpNY+X3T5fkZL/HihDVFxSbEJazqKJ6fjfGFU+2m+4fiBcVm4iWMF5zR5vr7lP9QzF5L6P/P1uIzoT//pNvq/UX+7bz0fudq8Hy5H6mI4JXe+gMe5OEpo9P9E+CTnnfKf8iWb5zQ/3nSSfV5KP8hD6unQf0zdyuBQH3vpHvq/qH470nf1O+L+Kb+2xCvFUoRXotKGG/5vSH+vfWxTt0Bvvh+DvDVvi/jbf8g3vJzQrwWxER4rWFgfLIStwhv9ynizf8W4u0+DfBvPU/ywpYI39/Zb8maSCe079JSezDA2/SJEG/6RoD38054G9AR4qvJK8YnW3/Cm70Q4puuJ+XbpK72TkL9P1ll7oP6/8aLv+5B/T/ZhNIHew6+SgJ/EW+jzUN80+cP8EnXB/FF86lCvOTDcK/YVNR+CfBZ5VuI77b+jC+2nowX/3CATxrvCPHlrfW0AaAx3vYbnReLvzxoTyWrp3jQHkmP+nO4N1J6fH1I/z94XR/KT0iWL/pg/sDB6/PnYP11P1P8KNnAgQfjF8nybR6M3yUbrveg/n/w+vs0wHzjp54Xag50w1Nb8tvzkD17e1/K97utJ/lzbt8rOo9vybfLfqN8yNt+Jn/C7byQvX89j8Hv2/4J5I+uJ9nXN3lF+fw3eUjx4pu8Dc7je/ivmutfxjf9vgF+mvwhvM1aDvFV90OAt/OL+KL2e4i3/RPgx1vrX7XdQYgvqv8E+P7W+tuI5QDfNL8lxL93HzVtxB/cj931VfJfvfqO/OJ9ZP6lBzs7vDqn/KK8snqBEN91/wT4pfsH8VPzH0J8e0s+W1P2AG/5riHe5HOAn7b+sN/yo/UmId73G+NdXyL8lzn9y3iTtwH+vfXJl+/FeLMHA/x6632tvi/E2/0b4E1eId7qJUO8ny/Gm/2L+Is8D/BmLwf4957H/DkPx1+6xkO540vuWi/M+mcebu9TfUq2UTWsD5/2H2aPZMBP/15U75Otww3b19nqBVj/z9bN9cHx79mafbM/LV/kM9WvlUfruRLnJ9g4+oSDRovZU+x/Ls8lPhXEW+336X2TypOE9Z4laf55wvyrWzya4nG3eDf+/iWeHuDNfx7gPX5B63PJN0D8JZ8hwNvz4PNf8jEQX90fjt/L8icT6uelqj2Y0F9UrL6S++0Wyxfl+HIx+yJhvc/JF9L4Bfn3PB+Ju6J5vlNC/dPzqQK85Wvx3A3PBwvxJt8CvOV7BHjbz3S/ez5eiLd8P/If3vIJA7z2LEV9oyyPj1N/tmL91xP20yg2aj5hB8iTL6rrSW3FTz6qvi/5V0++qz4/5fNU868m7Jdy8nV1P1O/l2rxkYT6VU3qv03YX87zmRPWd3u+dIi3/Rngtb0s472Va4T3fDPGW/4J4i3fPsSXN/F23wV4k1e4Hy73V4Bven8FeMuXRrzVg4R4O79kL3g9S4C3epkQrw2Z0d7xep8Q7+v5Vr1SiDd5HuCbyZO36rkCvNWLhXi7TwO86T8ob62ejvFer8f5qF4PGOK1WXCEt3wqxFu9ZIi3/FK677zeM/x93z/0+1avGvy+d82O8Np7OXoev18Yb/Yd4q0eOcRb/mSAN/sF18fqtQO81YOH+Gzrw3jzJwR4vy8Y/975snr/EO/ni/H9rfW3fgiBfOuevxrgrT4rwFv9F8nzM4T0nfv99Luw9wV9/vTTsPoIOi/D5QP5G08/EKt/ofr0canfoX4dNnQ7Yf+r0y9F9yf1cfd+LAn9n97vJcBbfC3EW71GgH/v+a3fDuO9n0/ifmXWLyjEmz0Y4E2fQbz1UwrxJq8CvNk7AX6+9b7Z6yPwe2UdIc/1d6cfl9YLU/1jt8EhXD/Yi9f/Un3u6Vdmz0P9r4rXy1P+c7dpL1y/fPq5Wf0y9b+q3r+L/MmnH53Vm9PzW30i99PoNgMoY75Hb/69aNhyt/gm93c6/Qbf6R91+hm+05/q9Eu0fmi0P7s/P/mfu93vGf3J3eYpZPR/dqvPyuifPP0w9XtRP+HTb1PXh/yTG7/0fJF/svvgOcwf7lavEfQztH6nQb9E66ea0f/p/VpDvPVnC/De75HxVn+N/a4v/fcCfH1nfbzfL6+/9xMO8Jf+hwHe+j8E+PeeP13Wn/o5W7yVRxuN7P1Xyb44/a6t3yn1My8uD7E/vMVbM9oLo7g8JHth2PwR7jc7LJ+T+98Oi89m1H9G9f4P1L9i461fNNVDbbz106Z+xcPqlbgf8umHb/2iuT+/9W8nfenWzz/AS/y34Ey20dU+4v7Sw+qLC45l3PiueOzfbvZ40B/e+k8WjL+PofGLgvrSsPrugvrMxtvz0/0+pubTBvMRpubDB/MjrF4+mE8xNb+roD9hTI3vF5z2OKz+lOftbbzIk4r5S8OGmle0L4bpA5X321J5UjEfe1q/o4r5GBsv8qTyPC+r16io703L16roH5umP9RovlJSPM63Sho/qjwzL6m92XjeVtJ87Ibfd1r/6ob217R4d/ssGPoO3xRP+R4za7ym8byz7O9L+tIs2v+2Yf3XxmfFk/9w48U/03meYNH7q/P620Dbjvk5Gy/+ls7zvKraXx31q9lUPvOo2Y2XereB+WzT/O0D+7HMrvKHh+tuvNS7Dezns/Giz0+eh9j1+07sl3LmLTbB4/w+s8d5vvG0ePpE/X8OjcdN3v9D87EXy6up+SqL12f6/Erc/5YPtnie4NT608XzK28zTfHALz0wiSuML3NZH1SxpqVkJ67ZnpaTnThpej02GTyh1NoEfemEafrLyj5fhYvfETSvih25m6CB5oydlZZHAjKPdE8W+stYO7yS5caw8bMJGrzh6VjLswlY/V42bjIVtIdX0vN/JlLT1siWEFpRQ1hZNcZUMeVreQpCQxt6ZYtxNR64nnWoR2p4RJdFKTaBzI5N0APUefZ4sbhSx4tkFUs87Twku6hnKJ4yr63nBp+4qrp1GrxbqyVjDvTGLPPGpInm9LLxe2lGj6T54IsHrjebn/7V8ug7gm6NxRPam7nAH/SBbIL2nOemG5sgToH8YNRx+dQpbqO3zI1z8hLow5meFwS+NkEHPXFkYRO0U3TB0OMmqKuaZyeuobHZV7XidwRtfl55Lw3bGhXV4WXjx4+9SV96WL9lNtg2QQcm8QTmZR6m3DGEtGzkXB784ab5fAdfWdOaWA/UojdBvcSTbyAbi3sKBfkvaFxisb5kjdHywsr5ZZp0XnxEp43yC+SS5cYULg5fpqwXrm5cVu1REobjl6XjFq4/OQT7C8EjqUM383lY6sEoHBJeVrJSOMayrCdfKeiEXNZktQSSb5lXt/BeWjZ2taJZtgniZ9sEcnwfQlMCqqE2qbvw6PBNkGu3NPR9LMvV3oTgkXSYZ0drffn00o7tNg6hKAGVk6X5fadCjs+0NFg4JW/8SBIRLANdwstKrMqMHklnOs9oL2nQbmLU4hDkkVZ04jRMtjDPY1kfz7K4EeBjk+7rg66cOwNVLHuoUz721ltUbud8JXB/LX8Jngh0Z3DPO2dwVPfO4D5bNwZ3InNGDXrf3RiU/XFjtLffvAUd/24M8pddNklnW+JGQJXUjuurzuoXBcImoCfI6nQ2gRK7D0ECezMSOSIFTy1UIGeHEtC8WWpbV3YeuyQ/5U0scITQHnYd3QjBd3ACJdhcCNyB9xCqEgJlywmUM3MhsAhc5nBuGaM0h5CUQGNl1tK29o3zHg5hKCH4DqKotBrp4aIKtco+cFO2TvEME8Smay3afBKsbLHC+LOi0gJjfKlb/hSs8LKKQ2ETAiEgCWFtYAcLV9w3IRDGkkLcBubEL+tZ1iaHR5YFySfei8uyPtrCsVKH0JVAt+IhFCVg8MJsuv5El6JYjZ3jWodQlEC5N4cgj8TNSo6pvJRA3aGWdUvqXP7j1nvnfOtl4cJTERGY+/LSnIF2PBBTCcERlZTZTUBv1lI/fq/R1pAkjU0IHkmc5puw+KVF5+sN++QcX1NXAn44a4x4SgXoTFvl98n9p/Mw9VLsgak89Y7bBGp2cgj2F9CPPzX03APJN1UY90DyTRVkfbEJaL7XTcDQglUA9sWawFS3/EmKp+1tM9DHg01kliVZDp5ysKyr6Ajs3qH+shG4IYfK1hHofJbYsgkYObNM18Gpxqur//iVLP4dQSI2m4AXe9dk0VGjMJWoDiefm8NUcu2Ohv3HTlwrKyEIU8mFMgK5ZBXMg1POVlNbdHS+sqwHyhjsZW+2vQcL46b60gis3aZO8zE5JtRst07WvavaD2NiZpLHqjcBbSAb/TEC87hoPGUsjhQUjQmNxdLbqicHp1ctKw+ZD38H6w++Caj+WIOlyR3mV1Yv+8lJ5vwTka2bQDVnK2sPy8lDAZYNpZqJQwvJsvqCBC7LNJo8p28lDapOHoS5HkuU5Mrgk/HVlICG36OlyjMIhFnv0ZlRakwz8U+6MScDijYzufxjmrI+C6pwc6ownoUT4G1A4eRLcRPkTE/O+NoEka2bQJHkTRDtflYsApk2NGs2/g5Dw+cnr5nTdEWrnA1VuJPXawRytZzEYXnpzu/QNZg3g1TyrkHV2bn2wnrz7/9CZ3pa8/+zDPQX7GKfg8tHrBxt8sX+2ghfBL7Y91aTgoTJKWKbUIxAYmZaS59zBumI2rU72VE+iyV9s9G0Cbq9F5o0s5i4X2hPb0kq8Ye5sDHstMGOc6GCdYS7vTSKGWtlMRd6HWYy2cqW4rT027nQg/W6lT8J+04iG2gmVUMXB2Gn9etcDxdYPOrnW9xx/ShsUwm0vYfdoutBp9qwnnaLh8YO8y9tAuXFjWmPlDBgMazNwOI51MPmQi5udPIyYH4g0Ikb1gl4cSuMYVfW4oT3Y+ZVJZC1uwni9z6J0Vwtq+chKA/u6no8mdS0Sk3l0jFB6C802xoFE62HdSQ5VhGXUBcjkO7tNd2rcJG/FY2vwlX1VbM4X8nd3xEkJLIqBiyOY8UIWKhd7QBVNAeOr+dRAhl+myAK1ssk/44g2v3iiN8mZCNgdXRR1eG4FWiVrFJhVcxvGVljipuAXzprQdpqXJFvHSgXV1scz2RSAuW2jKSawGIf2Uj2HbhKdBMknHCcYPQOVn20WLsfVve8Oku+R62s4/kLOr8YgXTvbtHjxQGLbjHFxcWo3WJZq6Ph183aPQR6aWvHtzre093iDy+383cEfwfSZk6IxZaVSsRPiyX5cANzpLr1eDgEbsqk7zDwTHebyrMGts3oNpZtDe5j1k2bGXixd/N7L84T6Dbp6MQ8aGs0dUgdAr20X+yDm4eZk3lx4UG37jFroEnTq7bXX5wc0a1fziHQS9uAxVdJyHcEKQVdA62sTVBNYGA2bc9W8ztQ/dkEaZJ7CNwlUaucB94P3rZxDZYaST1Ya7DU8DtustSwztivwOd3BLF218RkoZMwspRAQuA0F7V3oDuuWf7SCQ9Tu1bLCFkTzePmNxB7f06mjz0SafevXKIfCdzSVpUTzi4/PXbtL1ACYBt2sU/uCmvB4MX5S81iu69Km+8IWve/MKbYLJB6Mmn4kVTyLdRbX7l1PxJolZrpGgtNS2+WvTjLq9XLspIq3aydyCHQ5qu2Wzmm2GxgyKs0504oJr0XuuKbeUNfOYTfEfwd8Ihak5nFecYta0LsK/nzO4JvbwontGw+soWKbrO6/MWh2pbMicDOzZZMzCyWGsncRQsj4M07MLyS/e+Mx0r/Y4YqcQsv3mYTmAKCj9SICapihYTmX4IJxb8EE/xEIGGaoyIk1HcJ6a3dVK10+VWm8R1BPX0h4bKXaJrRMPdmQOialfiqHPmO0O0OCgjq+V6ouZ6JRv7hiGBRxZighhlLptouwjIgXPYSEaqmPL1qAL8jNNM2AkJ+j2DtOV4lP98RLsvKhOKPxAS1dwOCdY+LCcW3NxPefCQbQBd9h3RbJdpLSUPaEcFmIkUH6LmdB54CeBH3QChWrxMIsrLMBGfZugnZV4kI1sk7JlxEJRO0l1mwSjY8M9hLZzqn71bQZnz8Z6D1lXH5DpQTUoZmChwCPVK/6cb0SN1c5SFB3ZsBoV1uUXIzb4J6Z1hd97G5EaFe9CXykm2C63wUli/18uEoYbVYg6hDoNmq5bJKFC8rxWJNCzOYirsG2RotHi9jA7lk7f+8OOukWDuzmOB+Bxx5bCO/Y4LGB0KCbw0kPJczHRBczAQETV5ggg+mD75DvhlNASH5O8CZzjcbKCC4Z4N262lG6i8NZzqPi5JI/p/TftW/AxM0v4iPaL5dKEi4+RIDQrdVIpdU7rd3YILGBwKCB6dCgl/sAaG+5Yc7jb/e8sPlqhnfMUGDhNzEJN/uuICQ/TswwRVduoGyh7+Cv1AsIhcSHl8lWtZ8sVACwsWnS1sj365dIiTLzQkJl3dgwpvbO11EJRIebfoREzw+EBBc0Q0I+d1H0twc3hrJulPEBE0iCQkaa+J3SFZBHRM0XhYQrK42eofbPR0QLieOCRe5RIShvVQCMZNssFdM0Dg+i8rkWSch4fLhiNAvXoeAcHkHakd0CxIi4XpPM+FyPzBBcwaDl64X+yEgXI4obQ1r9BsRyu3D0REtl+gAqdKpXFwtlC2d8uWRqPwmZe10shYmJKVbCI9qg9MthEc5tOl27VIdYUoXIUBZ66dPvKVHkI/sdKK3FA9yeaVH69eC5IVkE2QPgd7hsd06uV+Y+foneryWufojvGfy4AwLU0z4+a3za7BA08K0EV61ksk5yRb/ifB620Z49RTz+nRzFE/01VkXgTUx2N8tIDB5xqXdOUFGkenOEV49Voyvllgc4dWFFuFVwWN8sTKVyX5JSzWdWAdTzJjnxndWgb4me21M6PKMmGwawsS81HwRuYR3/+LEvKZkYQ9OwkuX/ZzhKrYR3wcP6/Ncvi9dk48lP0xsCviYg2qgPLF+lEHisU1jOSnpsP8f+74dXXJ+33XUOx7b/1wM4evZMA3ao5E8Q80v+Irn97mU7fD7Kp7LrXy/FWyH9ZgXi2ekPnbfZZzRZqNzFs98t8YLG091H4/leaXgfKkm/WA47jE3+YOufhvkcxo9gMVkjpy58PuavJoLK8aTtSyZGEJNmjAzJ9syej9O7l+YVB877RFYnlvRPhV7JD2/s6O+lNToPo0NGC/Pw/In6XmcDYMgSd1up6kAvq8Wolfs/5K0o+VpqEEGieFLsJ6Op/vU8Rntixue73fFJ6ymuOGp47uv/4OJfjZyc3KFe7r096Hy82Q9viJ5Ivv/9HHi35fWbJzvf8NTIrvjuVzmhqdevI7nEjtfn86uGr2vR8O0m2RN3Br7v9R+CXq42Yj4UYP9LyGkwaMqkrqnR+Ue6jZys2AXVGuDceqYKRCuGf6Dmzln1Z9HRvsuW4c77oyQrYUey59sI0MTB/5tvyVsOZNtv3G/MKsFOLW/+DziYu4reF/xX3Wul8gam+7cC6ZokKmzi6+o/rPxpH/aCN/O9l3R79sH516pv6sP1E98RDAX+BadcNI7nsei+u2pfaVMeOu227HkoVoP44b3l9WU9obnper+7w31SSty7Sw/q/pbTndhKiPR6HWvXOil8uQUycL6NNU3OtuPFiLqBe07y1bceCq267YfMlfd2/nK6I/qqi+d8lh4X/OXdp5H0K2RcuK+NdY8mtuED2sQ/OD5Hday+MGCTUuZ2ni634dmrgWd16cmiDRO/7YOBo31Vet91DjWZqPoGtd2WmJ2m9zMVe+XxjOyl8aoGt8Xloregul+mufRBq6PDYNp3K4hPRr3a50NDPPAtY5VzslcWKcalgmS2htMmkiPHoLGl0Z6bLxGQ6lyCPJI3FXyTNG2eRxoJz02taREoUjRtFphy9YJOYqOOoGnIxkhvfsXeJTrlYDuFCc8eP6vBB6GdSGgR8u+dGWV+kpAH4w5RSsHGT0OXmcwl0zVisphinNEbYRUsFvFcVM7G97m+d4EusnTo66V2rHq/0g+WaVQLmUjoDPSoj+1RgdIwjmbEFwPRfHY0F3VhVPIh78v1WKVW+jZfJ0ajA9Vc6tyuMJaIFeeuWIdOSqb69PWJ6H7xoZkVB52PTXvp7I6aB2nNp6fX7f0w/2YbaAsl61Ndd8UTjgbNj5zoTC1dlaF01ksveNM28TnEXO0cOMbSwcpIzIniuLpPFr6SOnYbM7q4U7BG5pbPoI1gwCyaofSUGDZjIvSsDeqjbgojftqaXipcDPvruZZqdxgSvsxBJN/u8rnwp0pm7obSsH0o6ZqZuExJpa+s/Fkvja9hUsJ3BM6ezljZaG5PzaewmnNzlfG/dk0PaIk1NurrWfC+6uquyEYEm5zOcqDalC1adncYaSq+Z3Z/WrtxIPJ7lb3n3kEk+XeZk6vKao/ZG7RXvR+PBIY8bL+mXs+mns3s3vU3MeZx8MW+14N9Rlrnf5KmPs1d/nLYfod/lE8NW+0zuzni2N6mdzvuWAec1bT5/wXqghUQyZnriBUO+YEkDh88rO8ylH4R9z9J6CIzyP33Svh4xu86Cc5Cv+IvM088Sbrfk5c+J31Pk0cfs66/xOnL2et1E2cPpg1HS2xuy2rO/tVifId/uf9lngCqdVjbzydd8ezfnXDYyWz4Xls7A2P5bAXPOkPjmd9xoYZJe7xnrQJZMo8VFzLf1PG85I0/JYS9j1Iqm+nhPshqb5xnEMYnpdwb+IRD8nqTLjiwpowRMk1kvzCLk7L3XkvNWgES2NwTgSRZ+8oSJL2PuRzbrUxDcWIZYEEY+s1CYTbsidzH3I5oNosFY+gNUXi8QFWl1S43ljzETldNqu9knFHZo3GR9rFVDg5h4pdJtiaqdhdi5UhNmCAJ7sXa26I8YtighU3QVXPKE9tqXr4HnS8WqfSB2s2zKjklOCmJVdPEOG3hyEvc9cCrSdwCIlC+uD92rW8hs1JG9wawbsuJMPFeGC4zdp9eMaZuvoi+NQtRgtpjuUILmHfhwcRq9nzYBKGVxlykrqXMfKgzGRZ+THe1p5DYsOWh0M3U983CN9OfZ4oRKebAZOqHz/j5CW44THJ9fI8ZJXc3ve9GCbPmL59Lywjv+wHTJK+7DdKuorx+x/++sd//Omf//Jvf/7P//z7P/72+3/89uP//7ff//bbv//t9//6y79+/ae//+mPf/1t/9v/Aw==);lineShape=1;" vertex="1" parent="1">
          <mxGeometry x="518.4185700309376" y="1915.1010358050241" width="425.62450712683665" height="281.05431177940113" as="geometry" />
        </mxCell>
      </root>
    </mxGraphModel>
  </diagram>
</mxfile>
